<svg width="780" height="252" viewBox="0 0 780 252" fill="none" xmlns="http://www.w3.org/2000/svg">
<path d="M233.915 251.958L173.367 50.3799L116.142 251.958H84.0228L32.7052 31.9203C31.4745 26.2594 30.49 22.3213 29.7516 20.1062C29.0133 17.6449 27.9057 16.0451 26.4289 15.3067C25.1983 14.5683 23.2293 14.076 20.5218 13.8299L0.216309 11.2456V0.908203H102.482V11.2456L82.1768 13.8299C78.2388 14.3222 76.1467 15.3067 75.9006 16.7834C75.6545 18.2602 76.3928 23.3058 78.1157 31.9203L116.512 203.964L172.998 0.908203H203.641L263.819 200.272L302.953 31.9203C304.922 23.3058 305.661 18.2602 305.169 16.7834C304.676 15.3067 302.584 14.3222 298.892 13.8299L278.587 11.2456V0.908203H350.21V11.2456L329.904 13.8299C327.197 14.076 325.228 14.5683 323.997 15.3067C322.767 16.0451 321.659 17.6449 320.675 20.1062C319.936 22.3213 318.952 26.2594 317.721 31.9203L266.403 251.958H233.915Z" fill="#E6E6E6"/>
<path d="M542.126 188.458H552.463V251.958H369.713V241.621L390.019 239.037C393.957 238.545 396.295 237.56 397.034 236.083C397.772 234.36 398.141 229.315 398.141 220.946V31.9203C398.141 23.5519 397.772 18.6294 397.034 17.1526C396.295 15.4297 393.957 14.3222 390.019 13.8299L369.713 11.2456V0.908203H548.771V64.4091H538.434L526.62 23.4289C525.881 20.4753 525.02 18.3833 524.036 17.1526C523.297 15.6759 521.697 14.8144 519.236 14.5683C516.775 14.076 512.591 13.8299 506.683 13.8299H442.444V118.68H484.532C490.439 118.68 494.623 118.557 497.085 118.311C499.546 117.819 501.146 116.957 501.884 115.727C502.869 114.25 503.73 112.035 504.468 109.081L512.591 79.1768H522.928V171.106H512.591L504.468 141.201C503.73 138.247 502.869 136.155 501.884 134.925C501.146 133.448 499.546 132.587 497.085 132.34C494.623 131.848 490.439 131.602 484.532 131.602H442.444V239.037H510.375C516.282 239.037 520.467 238.914 522.928 238.668C525.389 238.175 526.989 237.314 527.727 236.083C528.712 234.606 529.573 232.391 530.312 229.438L542.126 188.458Z" fill="#E6E6E6"/>
<path d="M586.867 11.2456V0.908203H688.764C708.455 0.908203 724.084 3.6156 735.652 9.0304C747.22 14.4452 755.465 21.5829 760.388 30.4435C765.556 39.3041 768.141 49.1492 768.141 59.9788V69.947C768.141 82.7457 764.079 93.8214 755.957 103.174C748.081 112.281 736.513 118.803 721.253 122.741C739.959 125.941 754.234 132.587 764.079 142.678C774.171 152.769 779.216 165.445 779.216 180.705V191.042C779.216 202.118 776.632 212.332 771.463 221.685C766.295 230.791 757.68 238.175 745.62 243.836C733.806 249.251 717.931 251.958 697.994 251.958H586.867V241.621L607.173 239.037C611.111 238.545 613.449 237.56 614.188 236.083C614.926 234.36 615.295 229.315 615.295 220.946V31.9203C615.295 23.5519 614.926 18.6294 614.188 17.1526C613.449 15.4297 611.111 14.3222 607.173 13.8299L586.867 11.2456ZM688.764 13.8299H659.598V117.204H688.764C699.348 117.204 707.347 113.635 712.762 106.497C718.177 99.1132 720.884 87.5452 720.884 71.793V59.9788C720.884 43.9805 718.177 32.2895 712.762 24.9057C707.347 17.5218 699.348 13.8299 688.764 13.8299ZM697.994 130.125H659.598V239.037H697.994C709.07 239.037 717.438 235.345 723.099 227.961C729.006 220.331 731.96 208.025 731.96 191.042V178.859C731.96 146.37 720.638 130.125 697.994 130.125Z" fill="#E6E6E6"/>
</svg>
