<svg width="180" height="180" viewBox="0 0 180 180" fill="none" xmlns="http://www.w3.org/2000/svg">
<path d="M18.3434 73.9727C18.7484 74.577 19.1521 75.1827 19.5583 75.787C17.1286 75.7113 14.5723 75.4752 14.0771 74.4352C14.0874 74.3835 14.0977 74.3311 14.1107 74.28C15.4752 73.9222 16.6462 73.9001 18.3434 73.9727ZM31.3082 79.4826C31.5019 80.0805 31.7011 80.6762 31.8947 81.2719C31.4343 81.2915 30.9775 81.312 30.5208 81.3304C30.6304 80.7217 30.7419 80.112 30.8478 79.5031C31.0031 79.4956 31.153 79.4902 31.3082 79.4826ZM36.002 92.5501C34.7843 93.6726 33.8381 94.4218 33.1149 96.1126C32.1056 95.2922 31.5874 93.6575 31.263 91.829C30.9116 89.8429 30.7889 87.6281 30.5208 85.9734C30.5501 85.6922 30.5782 85.4111 30.6064 85.1286C31.0784 85.0937 31.5503 85.0586 32.02 85.0259C33.2175 87.2932 34.4193 89.5593 35.6213 91.829C35.7485 92.0681 35.8736 92.3085 36.002 92.5501ZM34.1749 75.787C34.3284 74.7661 34.4836 73.7477 34.6445 72.7293C34.6774 72.5252 34.7065 72.3198 34.734 72.1168C34.8892 72.1092 35.0428 72.1016 35.1944 72.0915C34.851 73.3242 34.5111 74.5544 34.1749 75.787ZM33.1944 59.157C35.3476 59.7401 37.5008 60.3244 39.6562 60.9087C39.6459 61.0058 39.6377 61.1027 39.6295 61.1985C36.6204 63.4065 33.84 64.3872 32.3478 68.396C32.5353 65.4193 32.726 62.4426 32.9125 59.466C33.0058 59.3618 33.0991 59.26 33.1944 59.157ZM39.2296 49.9181C38.806 54.0695 39.398 55.9094 40.1236 58.4845C41.276 59.306 41.7294 59.795 41.3542 61.0048C39.4139 60.0476 37.3645 59.0435 34.3966 59.1988C34.3213 59.1168 34.2471 59.0348 34.1749 58.9538C35.0125 55.6764 36.632 53.6658 37.8893 51.07C38.3367 50.685 38.7822 50.301 39.2296 49.9181ZM48.511 44.3943C48.6048 44.3889 48.6999 44.3814 48.7914 44.3748C47.9019 47.4365 47.5432 54.5039 45.983 57.3092C42.304 55.5688 42.3745 48.033 46.4961 45.0561C47.1688 44.8343 47.8393 44.6139 48.511 44.3943ZM45.0793 67.0868C46.1135 68.2069 47.1456 69.3269 48.1809 70.4481C46.9651 74.1884 44.6556 77.0053 43.6841 81.3304C43.0703 81.2852 42.4618 81.2389 41.8481 81.1949C40.2862 76.8315 44.2023 69.7277 44.8669 66.5482C45.8237 66.6594 46.7793 66.7683 47.7381 66.8806C48.0896 67.776 48.441 68.6714 48.7914 69.5679C47.5555 68.7408 46.3163 67.9126 45.0793 67.0868ZM53.5636 44.3748C53.2519 48.0022 54.052 49.8804 54.2727 52.6972C52.4466 53.6183 50.6164 54.5415 48.7914 55.4615C49.2505 50.8343 50.1876 47.7856 51.4666 44.5302C52.1664 44.4777 52.8661 44.4262 53.5636 44.3748ZM55.694 38.8575C55.8297 38.8474 55.9672 38.8401 56.0998 38.8315C55.8992 39.4218 55.694 40.0122 55.4821 40.6011C55.0827 40.6272 54.6753 40.6532 54.2727 40.6793C54.5799 40.3147 54.8936 39.9471 55.2088 39.5811C55.3721 39.3393 55.5322 39.0992 55.694 38.8575ZM56.0998 55.7892C54.2751 56.911 52.4462 58.0353 50.6185 59.157C50.7294 57.1161 53.3313 54.3771 55.5045 53.6137C55.6719 53.7043 55.833 53.7948 56.0025 53.8855C56.0338 54.5196 56.0663 55.1551 56.0998 55.7892ZM59.7539 43.0547C59.4235 44.9286 59.093 46.8024 58.7666 48.6762C58.4235 48.8915 58.0795 49.1045 57.7403 49.3186C57.5601 49.52 57.3807 49.719 57.1985 49.9181C56.2044 48.5246 55.9588 45.1138 56.1694 42.5271C57.3661 42.7041 58.56 42.88 59.7539 43.0547ZM63.4081 38.8368C63.4002 38.8984 63.3933 38.9586 63.3855 39.0188C62.9166 39.4645 62.4507 39.9108 61.9847 40.357C61.0548 40.7138 60.9383 40.6988 59.7539 40.6596C59.9144 40.0501 60.0837 39.4403 60.2511 38.8315C61.3025 38.8329 62.3567 38.8345 63.4081 38.8368ZM67.0621 31.4403C66.5185 32.6709 65.9749 33.9028 65.4313 35.1358C63.5381 34.9996 61.6461 34.8633 59.7539 34.7256C59.7643 34.6265 59.7716 34.5274 59.7821 34.427C62.1165 33.3501 64.1612 32.0761 67.0621 31.4403ZM64.1105 41.0315C64.3118 40.9136 64.5122 40.7972 64.7135 40.6793C64.8868 41.2961 65.0617 41.9109 65.235 42.5271C64.6261 42.4086 64.0155 42.2901 63.4081 42.1708C63.641 41.791 63.8746 41.4106 64.1105 41.0315ZM68.8892 46.4993C66.7128 47.3434 63.7045 47.1113 61.9646 48.0704C61.838 47.3294 61.7114 46.5907 61.581 45.8498C61.9646 45.3585 62.3404 44.866 62.7189 44.3748C64.5621 45.0947 66.404 45.8192 68.2434 46.5404C68.4591 46.5274 68.6735 46.5134 68.8892 46.4993ZM64.2164 49.8239C63.3888 49.8548 62.5586 49.8866 61.7348 49.9181C61.6789 49.6573 61.6342 49.3964 61.581 49.1356C63.3268 48.4268 66.2587 48.3582 68.8892 48.0704C67.9635 48.5783 67.0417 49.0862 66.1148 49.5947C65.4821 49.6705 64.8517 49.7469 64.2164 49.8239ZM70.7163 49.8234C68.6233 50.3422 66.6183 52.1807 65.2508 53.6137C64.9827 51.9449 68.2059 48.9908 69.7502 48.0704C70.4357 48.6785 70.5076 48.6147 70.7163 49.8234ZM74.3704 27.7448C74.3622 27.844 74.3527 27.9395 74.3432 28.0375C73.6112 28.4765 72.878 28.9166 72.1472 29.3555C71.0616 29.4341 69.9748 29.514 68.8892 29.5925C68.9022 29.497 68.9117 29.3979 68.9212 29.3024C70.74 28.7824 72.5576 28.2636 74.3704 27.7448ZM71.4146 33.2881C71.1823 32.9428 70.9509 32.5977 70.7163 32.2525C72.3623 30.8662 76.0047 31.6303 78.0246 31.8343C75.8206 32.319 73.6198 32.8044 71.4146 33.2881ZM87.7647 27.8461C90.8205 28.095 93.6105 28.8168 95.7298 30.1368C95.9175 30.1243 96.1064 30.1148 96.2952 30.1034C96.1833 30.2626 96.068 30.42 95.956 30.5792C94.9812 30.8663 94.0075 31.1534 93.0348 31.4403C91.2807 31.1896 89.521 30.9378 87.7647 30.686C83.9105 30.1349 80.0517 29.5827 76.1975 29.0315C76.2055 28.9542 76.2179 28.8788 76.2269 28.8026C79.9669 27.9376 84.0586 27.5428 87.7647 27.8461ZM99.9204 26.8715C99.7021 27.1627 99.4877 27.4549 99.272 27.7448C97.3026 27.6044 95.6748 26.8336 94.4682 25.897C96.296 26.1282 98.1204 26.3618 99.9499 26.5943C99.9409 26.6875 99.9294 26.7795 99.9204 26.8715ZM109.651 33.7023C110.153 33.5099 110.663 33.3175 111.167 33.1261C111.692 33.5767 112.212 34.0304 112.739 34.4811C112.527 36.0162 111.036 37.279 109.896 38.7778C109.603 38.7951 109.313 38.8133 109.021 38.8315C106.635 34.8992 103.628 30.5883 98.3528 29.0744C98.2757 28.9175 98.2 28.7605 98.123 28.6036C98.8355 28.3179 99.5429 28.0303 100.254 27.7448C103.836 28.9914 106.823 30.884 110.15 31.9767C110.577 33.0096 110.444 32.6613 109.651 33.7023ZM114.061 42.4606C113.922 42.3256 113.786 42.1871 113.646 42.0503C113.342 42.0688 113.042 42.0946 112.739 42.1169C113.239 41.6382 113.744 41.1578 114.251 40.6793C114.182 41.2723 114.125 41.8692 114.061 42.4606ZM115.672 62.8527C118.144 64.9874 118.777 68.0751 117.747 72.0915C116.685 69.7111 115.63 67.3307 114.566 64.9503C114.917 64.4218 115.262 63.8925 115.608 63.362C115.63 63.1925 115.648 63.021 115.672 62.8527ZM116.393 46.2437C116.381 46.358 116.376 46.4726 116.363 46.587C115.932 47.0805 115.498 47.5754 115.064 48.0704C114.897 47.7427 114.734 47.4138 114.566 47.0861C115.344 45.6929 114.784 46.4411 115.805 46.2937C116 46.2765 116.196 46.2579 116.393 46.2437ZM117.912 46.2226C119.841 46.935 121.777 47.6486 123.702 48.3609C123.689 48.5535 123.667 48.7472 123.649 48.9398C123.163 49.2671 122.676 49.5932 122.188 49.9181C120.255 49.2057 118.326 48.4921 116.393 47.781C116.412 47.5872 116.43 47.3935 116.447 47.2009C116.934 46.8737 117.422 46.5476 117.912 46.2226ZM129.183 53.6137C128.113 52.9024 127.045 52.1947 125.974 51.4872C125.824 51.2004 125.678 50.9124 125.529 50.6268C126.921 49.7752 126.719 49.8177 128.193 50.1008C128.519 51.2717 128.85 52.4415 129.183 53.6137ZM131.01 52.9113C130.797 53.1455 130.582 53.3786 130.368 53.6137C129.585 53.215 129.447 52.7043 129.183 51.7659C129.741 52.0064 130.297 52.2487 130.857 52.4909C130.91 52.631 130.96 52.7712 131.01 52.9113ZM129.645 47.6269C129.484 47.638 129.338 47.6472 129.183 47.6602C129.683 47.1815 130.191 46.703 130.703 46.2226C130.349 46.6919 129.988 47.1575 129.645 47.6269ZM138.318 56.9212C138.018 57.051 137.721 57.1808 137.427 57.3092C135.791 56.3955 134.162 55.483 132.535 54.568C132.027 53.8797 131.517 53.1888 131.01 52.498C133.544 50.6284 133.633 52.7916 136.022 53.9715C136.783 54.956 137.551 55.9406 138.318 56.9212ZM140.145 58.5473C139.536 58.3273 138.929 58.1075 138.318 57.8876C138.685 57.6973 139.053 57.5032 139.419 57.3092C139.662 57.7231 139.903 58.1353 140.145 58.5473ZM137.922 61.5265C138.582 62.8569 138.577 62.4783 140.145 62.2838C139.211 63.0893 138.274 63.8948 137.337 64.7004C136.447 63.0018 135.556 61.302 134.664 59.606C134.673 59.4989 134.684 59.3945 134.697 59.2874C136.668 58.8657 137.305 59.5773 139.229 59.8606C139.477 60.2561 139.727 60.6531 139.975 61.05C139.295 61.2106 138.609 61.3685 137.922 61.5265ZM138.318 64.8415C139.536 64.1767 140.752 63.5164 141.972 62.8527C141.24 64.4949 140.29 65.3435 139.159 66.5482C138.881 65.9789 138.6 65.4098 138.318 64.8415ZM145.627 71.8937C144.637 72.7476 143.995 73.0234 142.118 73.1756C142.62 73.2297 143.124 73.2871 143.625 73.3423C143.614 73.4327 143.605 73.5198 143.596 73.6092C141.882 74.3341 140.166 75.06 138.449 75.787C138.401 73.5893 138.363 71.3928 138.318 69.1962C139.499 67.8005 140.686 66.4049 141.868 65.007C142.087 64.9056 142.299 64.804 142.515 64.7004C143.551 67.0989 144.593 69.4984 145.627 71.8937ZM143.799 61.7887C153.887 58.9781 151.938 64.3218 147.436 68.396C146.222 66.1942 145.007 63.9894 143.799 61.7887ZM152.935 62.8527C149.218 80.2823 148.5 81.2327 135.356 88.7216C135.128 88.375 134.895 88.0298 134.664 87.6834C134.82 87.0351 134.973 86.3878 135.128 85.7395C143.701 83.2975 148.577 78.8215 148.069 68.6732C149.503 66.8375 150.933 65.0028 152.365 63.1671C152.556 63.0623 152.745 62.9586 152.935 62.8527ZM153.381 62.8527C153.236 62.2512 153.086 61.6481 152.935 61.046C153.393 61.0315 153.85 61.0177 154.303 61.0048C153.996 61.6215 153.69 62.2374 153.381 62.8527ZM131.01 79.8014C131.051 79.1601 131.094 78.5176 131.139 77.8763C131.174 77.3263 131.21 76.7753 131.249 76.2252C131.67 76.0861 132.095 75.9456 132.517 75.8076C132.579 75.8019 132.638 75.7939 132.697 75.787C133.052 77.9664 132.699 79.5834 131.969 81.3304C131.358 80.9402 131.237 80.7735 131.01 79.8014ZM123.702 95.969C123.712 95.8625 123.721 95.756 123.73 95.6496C124.531 93.7416 125.33 91.835 126.127 89.9283C126.291 89.5251 126.463 89.122 126.633 88.7216C128.035 88.8159 129.447 88.9104 130.852 89.0049C130.913 89.3229 130.957 89.6289 130.981 89.9283C131.166 92.101 130.413 93.8415 129.633 96.1126C127.656 96.0633 125.682 96.0182 123.702 95.969ZM125.529 103.387C125.544 102.434 125.562 101.48 125.58 100.529C125.605 100.287 125.628 100.047 125.649 99.8086C126.679 99.8843 127.705 99.9614 128.732 100.038L129.183 100.004C128.477 101.169 127.773 102.335 127.072 103.504C126.555 103.465 126.042 103.427 125.529 103.387ZM123.72 91.4299C123.78 91.3981 123.843 91.3662 123.906 91.3335C124.394 91.0844 124.88 90.8343 125.368 90.5853C125.421 90.5796 125.474 90.5749 125.529 90.5693C125.452 90.8241 125.381 91.0779 125.308 91.3344C125.027 92.3112 124.746 93.289 124.463 94.2649C124.212 93.3967 123.953 92.5266 123.702 91.6567C123.707 91.5798 123.711 91.5049 123.72 91.4299ZM120.87 100.63C120.595 100.356 120.316 100.079 120.047 99.8086C120.852 100.366 120.326 99.8214 120.87 100.63ZM116.393 98.4322C117.418 97.7852 118.53 97.9842 120.047 98.0073C119.895 98.4977 119.749 98.992 119.599 99.4825C118.349 99.9806 118.172 99.797 116.751 99.6519C116.633 99.2462 116.516 98.8392 116.393 98.4322ZM118.63 105.351C119.104 106.462 119.577 107.572 120.047 108.682C118.954 109.42 117.859 110.157 116.764 110.895C115.787 109.562 116.855 105.813 118.63 105.351ZM115.024 93.7549C114.875 93.766 114.724 93.7752 114.566 93.7882C114.769 93.3298 114.966 92.8735 115.165 92.4171C115.123 92.8606 115.072 93.3077 115.024 93.7549ZM120.285 94.2649C120.208 94.2139 120.126 94.1637 120.047 94.1121C120.318 93.5514 120.579 92.9895 120.85 92.428C120.935 92.4239 121.027 92.4205 121.116 92.4171C121.366 93.008 121.623 93.5996 121.875 94.1912C121.345 94.216 120.816 94.2407 120.285 94.2649ZM132.936 70.2437C132.906 70.036 132.871 69.8263 132.837 69.6181C133.318 69.0342 133.625 68.6703 134.452 68.396C134.524 68.7591 134.596 69.1241 134.664 69.4891C134.311 69.7239 133.954 69.9594 133.602 70.1967C133.378 70.2127 133.158 70.2285 132.936 70.2437ZM132.837 74.7562C132.507 75.1909 131.921 75.4362 131.504 75.787C131.337 72.7078 131.171 69.6286 131.01 66.5482C131.618 69.2862 132.227 72.0218 132.837 74.7562ZM129.484 87.1398C130.694 86.47 130.863 87.089 131.01 88.7216C129.787 88.7191 128.575 88.7144 127.356 88.7121C127.376 88.5206 127.396 88.3317 127.415 88.1427C128.104 87.8072 128.794 87.4741 129.484 87.1398ZM127.692 82.0323C127.966 81.7992 128.239 81.5635 128.518 81.3304C128.739 81.7285 128.962 82.1266 129.183 82.5234C129.079 82.7421 128.979 82.9595 128.872 83.1781C128.367 83.1205 127.863 83.0617 127.356 83.0028C127.47 82.6792 127.58 82.3558 127.692 82.0323ZM127.356 86.9329C126.723 87.5282 126.086 88.1262 125.45 88.7216C125.037 88.653 124.622 88.5857 124.21 88.5159C124.037 88.5333 123.869 88.5495 123.702 88.5656C124 87.9999 124.292 87.4368 124.592 86.8737C125.512 86.8938 126.435 86.914 127.356 86.9329ZM120.46 85.8833C119.7 85.353 120.252 85.4251 120.106 85.0259C120.222 85.3105 120.343 85.597 120.46 85.8833ZM126.222 77.6348C124.165 76.5711 122.107 75.5064 120.047 74.4415C120.334 70.217 120.854 65.362 120.434 61.0048C125.196 62.7302 129.463 70.4498 126.222 77.6348ZM121.875 77.6348C123.394 78.4307 123.306 79.167 125.413 79.8084C125.782 81.1783 125.222 81.718 124.346 83.1781C123.602 83.1485 122.856 83.1175 122.109 83.0867C121.645 80.6546 122.146 79.2562 121.875 77.6348ZM122.292 89.5788C121.527 89.0504 122.075 89.1206 121.934 88.7216C122.051 89.0098 122.168 89.2961 122.292 89.5788ZM134.664 71.794C134.669 71.6808 134.675 71.5676 134.682 71.4557C135.231 71.0504 135.779 70.6492 136.329 70.2437C136.619 72.1352 136.51 75.2848 136.077 77.6348C135.105 76.8715 134.926 73.6618 134.664 71.794ZM134.664 77.633C135.036 77.0177 135.403 76.4024 135.768 75.787C135.55 76.3894 135.333 76.9937 135.126 77.5998C134.971 77.6126 134.819 77.6256 134.664 77.633ZM145.317 72.1092C145.424 72.1025 145.525 72.097 145.625 72.0915C145.713 79.1688 141.335 80.4571 135.578 83.1204C135.272 83.1404 134.969 83.1604 134.664 83.1781C135.858 80.7072 137.052 78.235 138.25 75.7641C140.605 74.5458 142.964 73.3298 145.317 72.1092ZM134.489 58.2805C134.549 58.4627 134.607 58.646 134.664 58.8293C134.512 58.9394 134.357 59.0482 134.207 59.157C133.748 58.5407 133.292 57.9256 132.837 57.3092C133.39 57.6334 133.941 57.9576 134.489 58.2805ZM132.837 61.354C132.861 61.2465 132.869 61.1364 132.887 61.0317C133.02 61.0222 133.155 61.0128 133.29 61.0048C133.751 61.6226 134.207 62.2375 134.664 62.8527C133.607 62.3463 133.432 62.2242 132.837 61.354ZM134.664 66.0764C133.842 66.8491 133.018 67.6231 132.197 68.396C130.431 65.8433 128.67 63.2875 126.906 60.7349C124.625 58.7558 122.332 56.7745 120.047 54.7942C120.555 54.4011 121.058 54.0068 121.559 53.6137C124.878 55.0474 130.687 57.778 131.857 61.1851C132.238 62.2929 130.928 63.2091 131.82 64.1364C132.879 65.234 133.94 64.4512 134.664 66.0764ZM119.243 77.6348C119.426 77.7081 119.615 77.7816 119.8 77.8539C119.882 79.629 119.963 81.4041 120.047 83.1781C119.762 83.1123 119.48 83.0464 119.192 82.9804C118.389 82.3894 117.827 79.6374 118.562 78.4426C118.787 78.1738 119.017 77.9048 119.243 77.6348ZM115.196 86.8969C115.391 86.8895 115.593 86.8812 115.785 86.8737C115.987 87.3553 116.194 87.8368 116.393 88.3192C116.083 88.4408 115.767 88.563 115.453 88.6846C115.158 88.6969 114.866 88.7092 114.566 88.7216C114.779 88.1135 114.989 87.5056 115.196 86.8969ZM113.526 116.439C113.265 115.541 112.999 114.641 112.739 113.741C113.865 113.415 114.988 113.089 116.115 112.762C116.205 112.758 116.302 112.75 116.393 112.742C116.381 112.826 116.371 112.912 116.364 112.995C115.418 114.144 114.473 115.29 113.526 116.439ZM110.912 109.047C111.244 107.965 111.488 107.799 112.092 107.2C112.26 107.264 112.432 107.33 112.6 107.392C112.646 107.553 112.693 107.712 112.739 107.871C112.364 108.239 111.989 108.606 111.615 108.976C111.379 108.997 111.145 109.023 110.912 109.047ZM111.771 110.895C111.486 110.58 111.198 110.266 110.912 109.953C111.519 109.651 112.133 109.349 112.739 109.047C112.582 109.653 112.423 110.259 112.264 110.864C112.101 110.874 111.935 110.885 111.771 110.895ZM109.846 119.281C109.591 119.072 109.338 118.864 109.085 118.655C109.271 118.643 109.464 118.632 109.648 118.62C110.591 117.892 111.528 117.164 112.467 116.439C112.555 117.18 112.649 117.922 112.739 118.661C112.024 119.15 111.299 119.645 110.579 120.134C110.335 119.849 110.093 119.565 109.846 119.281ZM109.985 140.438C105.587 140.626 102.962 139.508 99.3619 139.192C97.9933 136.491 96.6247 133.783 95.2564 131.08C94.9932 130.809 94.7302 130.538 94.4682 130.268C101.371 129.45 105.712 126.126 110.826 123.829C112.637 125.543 116.737 134.296 113.125 138.172C112.268 139.497 111.296 139.628 109.985 140.438ZM91.097 131.327C91.6456 131.293 92.1982 131.256 92.7522 131.22C95.2402 132.884 96.9354 135.869 98.123 138.611C95.6872 137.912 93.2479 137.207 90.814 136.503C91.3561 134.657 91.5848 132.78 91.097 131.327ZM85.8477 124.351C88.5912 123.559 91.3312 122.772 94.0749 121.981C98.39 122.404 102.705 122.826 107.023 123.245C107.1 123.464 107.179 123.68 107.258 123.896C103.401 125.626 99.0165 127.085 94.5944 129.32C89.8048 129.7 88.6521 127.917 85.3329 126.743C85.5072 125.943 85.6793 125.15 85.8477 124.351ZM85.3329 133.057C85.3885 132.525 85.4419 131.99 85.4975 131.455C86.5463 131.378 87.5951 131.298 88.648 131.22C88.9059 132.614 89.1829 133.392 88.7937 134.916C87.6401 134.298 86.4875 133.676 85.3329 133.057ZM81.6787 135.953C82.0861 135.724 82.4959 135.502 82.9021 135.275C84.4036 134.284 85.535 135.608 87.16 136.127C86.9434 136.338 86.7281 136.551 86.5128 136.764C84.9006 136.494 83.2897 136.222 81.6787 135.953ZM85.2263 133.068C84.8296 132.89 84.4329 132.711 84.0378 132.527C83.8599 132.094 83.6821 131.654 83.5058 131.22C84.114 131.259 84.723 131.297 85.3329 131.334C85.2976 131.913 85.2607 132.49 85.2263 133.068ZM79.8517 133.068C80.4618 133.591 81.0692 134.111 81.6787 134.63C81.6746 135.598 81.5916 135.489 81.3732 136.764C80.8662 135.531 80.3608 134.301 79.8517 133.068ZM75.1128 126.14C76.8275 125.621 79.1149 125.735 81.6787 125.678C80.8819 126.294 80.0909 126.909 79.2928 127.525C77.6516 127.363 76.0104 127.204 74.3704 127.042C74.6183 126.742 74.8661 126.44 75.1128 126.14ZM70.7163 33.5409C74.1076 30.3057 82.6209 31.2725 84.7547 33.3265C84.9471 33.3111 85.1417 33.2928 85.3329 33.276C82.4932 35.9144 78.0988 36.2198 75.3996 38.8315C73.2842 37.4248 71.5339 36.5239 70.7163 33.5409ZM89.3784 38.8315C89.8577 39.374 90.3348 39.9164 90.814 40.4579C89.5341 40.5331 88.1882 40.6092 86.8488 40.7214C83.8248 40.9778 80.8386 41.4287 78.7517 42.5084C78.663 42.5158 78.5721 42.5209 78.4822 42.5271C78.3286 42.2903 78.1761 42.0546 78.0246 41.8198C80.5834 40.5218 83.3747 39.478 86.8488 39.0394C87.5704 38.9489 88.3224 38.8839 89.1089 38.85C89.201 38.8428 89.2897 38.8356 89.3784 38.8315ZM96.4958 29.5925C98.8573 31.9602 102.387 33.3578 103.604 36.9837C98.6429 34.6844 91.0246 34.7178 87.16 31.0613C90.5697 31.7859 93.4645 31.517 96.4958 29.5925ZM98.123 42.5271C100.385 42.8369 102.645 43.1465 104.899 43.4539C105.08 43.4413 105.256 43.425 105.431 43.41C103.622 44.9639 101.81 46.5165 99.9961 48.0704C99.1436 46.3584 98.9369 44.0383 98.123 42.5271ZM106.83 50.43C106.363 50.3598 105.897 50.2876 105.431 50.2175C106.039 50.1177 106.648 50.0179 107.258 49.9181C107.115 50.0899 106.972 50.2618 106.83 50.43ZM105.431 46.0144C105.987 45.4688 106.548 44.9234 107.104 44.3748C107.158 44.9902 107.204 45.6056 107.258 46.2226C106.856 46.134 106.452 46.047 106.046 45.9568C105.843 45.9785 105.634 45.9942 105.431 46.0144ZM108.746 107.168C108.479 107.178 108.209 107.188 107.945 107.2C107.711 106.984 107.485 106.769 107.258 106.554C107.434 106.32 107.607 106.088 107.787 105.856C108.217 105.687 108.65 105.521 109.085 105.351C108.969 105.956 108.859 106.561 108.746 107.168ZM107.29 110.537C107.512 110.279 107.739 110.022 107.963 109.764C107.982 109.524 108.001 109.284 108.02 109.047C108.376 109.611 108.73 110.173 109.085 110.736C108.474 110.788 107.865 110.842 107.258 110.895C107.268 110.777 107.278 110.656 107.29 110.537ZM106.566 116.439C106.188 115.986 105.811 115.534 105.431 115.082C106.647 114.919 107.868 114.754 109.085 114.59L107.344 116.385C107.086 116.403 106.825 116.418 106.566 116.439ZM107.258 121.981C106.042 121.836 104.825 121.689 103.604 121.543C104.46 121.074 105.322 120.605 106.179 120.134C106.539 120.747 106.901 121.364 107.258 121.981ZM104.695 116.767C104.94 117.001 105.184 117.235 105.431 117.468C104.549 117.694 103.671 117.923 102.785 118.148C101.84 118.193 100.895 118.239 99.9499 118.286C101.263 117.67 102.583 117.052 103.9 116.439C104.167 116.549 104.432 116.658 104.695 116.767ZM94.4682 36.9837C96.6028 37.0414 98.8586 37.5815 99.9499 38.8315C98.476 38.6859 95.8315 38.9229 95.1628 37.7909C94.9365 37.5214 94.7008 37.252 94.4682 36.9837ZM96.3241 44.3748C97.3667 45.2848 97.7327 46.3565 97.5426 48.0704C95.933 47.5164 96.3534 45.7591 96.3241 44.3748ZM98.123 56.0226C98.1422 55.9176 98.1576 55.8127 98.1794 55.7078C101.819 54.9191 102.608 56.179 100.948 57.3092C99.516 57.1143 98.8599 56.5747 98.123 56.0226ZM102.803 103.504C103.067 103.569 103.334 103.636 103.604 103.703C103.592 103.789 103.583 103.872 103.574 103.958C102.973 104.422 102.376 104.888 101.777 105.351C102.027 104.74 102.276 104.131 102.524 103.524C102.622 103.515 102.712 103.51 102.803 103.504ZM101.796 58.4349C102.248 58.0606 102.705 57.6849 103.157 57.3092C103.306 57.9265 103.455 58.5411 103.604 59.157C102.994 59.0242 102.385 58.8902 101.777 58.7562C101.782 58.6486 101.79 58.5411 101.796 58.4349ZM107.258 107.846C105.786 108.227 104.315 108.611 102.844 108.993C102.488 109.011 102.131 109.028 101.777 109.047C101.785 108.985 101.796 108.923 101.805 108.861C103.463 108.539 104.522 107.991 105.499 107.2C106.014 107.295 106.531 107.392 107.045 107.489C107.115 107.607 107.188 107.726 107.258 107.846ZM104.106 103.504C103.939 103.162 103.769 102.821 103.604 102.48C104.021 102.207 104.442 101.93 104.862 101.656C105.052 101.76 105.241 101.86 105.431 101.96C105.191 102.457 104.949 102.953 104.709 103.45C104.509 103.468 104.306 103.486 104.106 103.504ZM92.6411 116.281C93.3651 115.72 94.0925 115.156 94.8153 114.59C97.0612 114.783 99.3029 114.975 101.55 115.168C101.625 115.333 101.7 115.5 101.777 115.666C100.262 116.539 98.7456 117.413 97.2294 118.286C95.5438 118.01 94.0845 117.262 93.2112 116.241C93.0219 116.256 92.8315 116.268 92.6411 116.281ZM89.2578 116.439C90.3852 117.055 91.5152 117.67 92.6411 118.286C90.814 117.967 88.9869 117.643 87.16 117.325C87.861 117.029 88.5581 116.734 89.2578 116.439ZM88.9869 120.211C88.9789 120.362 88.9708 120.509 88.9637 120.658C88.6145 120.85 88.2694 121.043 87.9231 121.237C87.6661 121.266 87.415 121.303 87.16 121.333C87.1681 121.184 87.1801 121.036 87.1882 120.889C87.9849 119.832 87.8493 120.185 88.9869 120.211ZM80.3721 45.0093C80.2005 44.8243 80.0267 44.6405 79.8517 44.4579C81.6644 43.4684 84.5284 43.002 87.3447 42.7738C89.6641 42.5862 91.9485 42.5579 93.5816 42.5271C93.8771 44.3739 94.1738 46.2222 94.4682 48.0704C92.0852 47.8088 89.8008 47.4992 87.3447 47.3857C85.3779 47.2968 83.3009 47.3314 80.9736 47.6188C80.7778 46.7477 80.5761 45.878 80.3721 45.0093ZM83.0588 119.157C83.2085 119.417 83.3561 119.677 83.5058 119.936C83.3625 120.489 83.2191 121.044 83.0758 121.596C81.3931 121.726 79.7105 121.853 78.0246 121.981C78.566 120.332 79.3728 119.539 80.2412 118.286C81.1798 118.576 82.1183 118.867 83.0588 119.157ZM76.8299 112.742C74.5355 112.617 71.3846 110.937 70.7163 109.047C73.1542 109.666 75.5868 110.286 78.0246 110.905C77.6272 111.518 77.2299 112.13 76.8299 112.742ZM79.3967 112.645C78.9381 112.68 78.4832 112.71 78.0246 112.742C78.0392 112.599 78.0593 112.452 78.0721 112.305C78.58 111.836 79.0824 111.362 79.5904 110.895C79.5246 111.48 79.4606 112.061 79.3967 112.645ZM74.3704 45.0738C75.1125 44.8413 75.851 44.6073 76.5931 44.3748C77.0703 44.9704 77.5487 45.5679 78.0246 46.1647C77.5222 46.1841 77.0259 46.2027 76.5236 46.2226C75.8078 45.8396 75.0873 45.4568 74.3704 45.0738ZM74.3419 124.409C74.2267 124.812 74.1126 125.215 73.9974 125.62C73.8188 125.635 73.6423 125.655 73.4659 125.678C73.1594 125.06 72.8509 124.443 72.5433 123.829C73.1542 123.892 73.7597 123.953 74.3704 124.016C74.3609 124.147 74.3493 124.277 74.3419 124.409ZM75.3585 116.439C76.7812 116.724 78.2004 117.013 79.6196 117.299C79.6978 117.49 79.7747 117.683 79.8517 117.875C78.7473 119.244 77.6453 120.611 76.5409 121.981C75.2115 121.786 73.8774 121.59 72.5433 121.395C73.4832 119.742 74.4209 118.09 75.3585 116.439ZM107.258 58.5308C107.533 58.1276 107.807 57.7251 108.082 57.3219C108.183 57.3177 108.28 57.3135 108.381 57.3092C109.148 57.5014 109.909 57.6935 110.674 57.8857C110.753 57.9937 110.833 58.103 110.912 58.2118C110.057 58.526 109.202 58.8422 108.344 59.157C107.983 58.9481 107.62 58.7391 107.258 58.5308ZM112.198 52.5586C111.771 52.2944 111.347 52.0321 110.912 51.7659C112.224 52.2463 111.469 51.7086 112.198 52.5586ZM111.786 61.0048C111.492 60.7579 111.202 60.5108 110.912 60.2631C111.52 59.8938 112.129 59.5246 112.739 59.157C112.42 59.7716 112.102 60.3886 111.786 61.0048ZM110.912 73.9393C111.858 74.1732 112.807 74.4071 113.752 74.6417C114.516 74.9387 114.499 75.0202 114.566 75.787C113.345 75.3192 111.303 74.9982 110.912 73.9393ZM111.189 68.9057C111.319 68.7358 111.452 68.5666 111.582 68.396C111.97 69.0125 112.355 69.6277 112.739 70.2437C112.13 70.1255 111.52 70.008 110.912 69.8891C111.004 69.562 111.097 69.2342 111.189 68.9057ZM74.1808 129.701C74.2437 129.863 74.3066 130.025 74.3704 130.187C73.55 130.5 72.7278 130.813 71.9092 131.126C71.5129 131.157 71.1146 131.189 70.7163 131.22C70.7239 131.137 70.7306 131.053 70.742 130.969C71.0213 130.531 71.2984 130.093 71.5814 129.656C72.7468 129.118 72.7735 129.469 74.1808 129.701ZM68.8892 36.9837C70.4857 38.1617 70.8948 39.625 70.6512 44.3748C69.5988 43.0312 68.9647 40.1924 68.8892 36.9837ZM69.9416 33.2881C69.8941 33.7372 69.8484 34.1806 69.8027 34.6259C69.4977 34.6499 69.1925 34.6703 68.8892 34.6924C69.2346 34.2249 69.589 33.7593 69.9416 33.2881ZM68.8892 35.1358C68.8424 35.5812 68.8026 36.0265 68.7506 36.4719C68.1907 36.3666 67.622 36.2631 67.0621 36.1596C67.525 35.8307 67.9896 35.498 68.4523 35.1691C68.598 35.1563 68.7471 35.147 68.8892 35.1358ZM68.8892 142.307C69.1877 139.17 69.4916 136.035 69.7923 132.899C71.9267 132.338 74.0632 131.78 76.1975 131.22C73.9528 134.806 71.7102 138.389 69.4643 141.969C69.273 142.083 69.0805 142.197 68.8892 142.307ZM69.3409 117.023C69.6703 116.826 69.9961 116.633 70.3231 116.439C71.2197 117.502 70.4158 119.028 69.5752 120.134C68.8664 119.473 68.7895 119.064 68.9762 117.567C69.097 117.386 69.2214 117.203 69.3409 117.023ZM63.4081 116.119C64.1113 114.996 64.8133 113.87 65.513 112.742C66.6396 113.401 67.7662 114.06 68.8892 114.72C67.7327 116.525 66.5678 118.327 65.4017 120.134C64.3516 119.204 63.7094 117.833 63.4081 116.119ZM63.4081 130.59C64.5268 129.568 65.6536 128.547 66.7738 127.525C67.3058 127.573 67.8393 127.62 68.3689 127.668C68.5418 127.954 68.7123 128.243 68.8892 128.53C68.7513 129.427 68.6199 130.324 68.486 131.22C66.792 131.01 65.1019 130.8 63.4081 130.59ZM57.9268 128.081C59.2642 127.28 60.6074 126.479 61.9447 125.678C62.9676 125.837 63.9847 125.996 65.0051 126.158C65.0794 126.296 65.1595 126.436 65.235 126.578C64.1608 127.51 63.0888 128.441 62.0168 129.373C60.406 129.206 59.3374 128.779 58.4989 128.049C58.3055 128.059 58.1145 128.071 57.9268 128.081ZM57.3936 124.511C57.8853 124.282 58.3743 124.056 58.8607 123.829C59.0701 123.875 59.2807 123.919 59.4914 123.965C59.579 124.066 59.6664 124.168 59.7539 124.269C58.3385 124.739 56.9139 125.209 55.4971 125.678C55.0903 125.535 54.6835 125.391 54.2727 125.25C55.3156 125.002 56.3572 124.757 57.3936 124.511ZM52.4456 122.775C52.8033 121.909 53.163 121.044 53.5187 120.176C55.5215 119.917 55.9912 120.903 57.4893 121.524C57.6313 121.742 57.7796 121.963 57.9268 122.183C57.1813 122.694 56.4349 123.201 55.6896 123.711C55.0841 123.751 54.4797 123.79 53.8731 123.829C53.3984 123.478 52.9246 123.128 52.4456 122.775ZM48.7914 130.359C49.677 128.799 50.5638 127.236 51.4493 125.678C53.2154 125.675 53.428 125.821 54.1562 126.752C54.4758 127.291 54.2003 127.003 53.4947 127.123C53.438 127.661 53.3877 128.197 53.3311 128.736C54.2569 128.88 55.179 129.02 56.0998 129.166C55.5576 130.514 55.4708 130.337 54.6457 131.194C51.9261 131.342 50.6946 130.822 48.7914 130.359ZM45.7137 123.829C47.2618 124.296 48.8086 124.761 50.3593 125.224C50.4444 125.408 50.5295 125.593 50.6185 125.776C49.6226 126.976 48.6292 128.175 47.6359 129.373C46.1936 128.9 44.75 128.428 43.3102 127.957C44.1114 126.583 44.9138 125.206 45.7137 123.829ZM27.8161 118.836C27.8366 118.651 27.8545 118.469 27.876 118.286C28.7394 118.95 29.6051 119.615 30.4675 120.279C30.5431 120.453 30.6176 120.629 30.6921 120.805C25.2981 124.955 33.5443 138.492 42.9293 129.723C44.2747 130.262 45.6167 130.8 46.9644 131.338C45.4113 134.1 42.7465 135.187 39.9394 136.743C33.2282 137.302 23.8375 126.373 27.8161 118.836ZM34.0755 120.728C34.1098 121.145 34.1415 121.561 34.1749 121.981C33.6758 121.606 33.1798 121.234 32.684 120.859C32.5704 120.618 32.4598 120.375 32.3478 120.134C32.924 120.333 33.4994 120.531 34.0755 120.728ZM43.3102 128.575C42.1976 129.434 41.0828 130.296 39.968 131.151C33.3987 131.84 30.7353 127.303 30.5208 121.725C30.9488 121.208 31.3724 120.694 31.7994 120.176C31.988 120.163 32.1766 120.147 32.3641 120.134C35.6747 122.735 38.599 126.701 43.09 128.014C43.1612 128.202 43.2356 128.388 43.3102 128.575ZM36.9433 101.656C36.3449 101.22 36.3071 101.012 36.002 100.281C36.4214 98.7032 36.8376 97.1211 37.2549 95.5421C37.7423 95.1167 38.2296 94.6889 38.7158 94.2649C39.0296 94.7241 39.3456 95.1811 39.6562 95.6379C38.7526 97.6452 37.8479 99.6494 36.9433 101.656ZM36.002 103.255C36.9629 100.988 37.9239 98.7224 38.8871 96.4583C39.0859 96.3409 39.2823 96.2274 39.4776 96.1126C40.8034 98.4477 42.7254 99.5056 43.3102 102.675C41.8643 104.183 40.4161 105.691 38.9702 107.2C37.6241 106.216 36.6856 104.933 36.002 103.255ZM41.4831 108.904C42.7064 107.719 43.9262 106.535 45.1495 105.351C45.7522 106.582 46.3583 107.814 46.9644 109.047C45.1384 108.997 43.3124 108.951 41.4831 108.904ZM50.6185 71.5677C48.886 75.2582 46.5844 77.7639 45.2038 81.3304C44.6032 78.0877 48.2337 73.4268 49.4045 70.5629C49.5889 70.4561 49.7755 70.3517 49.9599 70.2437C50.1802 70.6846 50.3983 71.1256 50.6185 71.5677ZM50.6185 61.4053C53.3326 60.5654 55.157 59.0277 57.1042 57.3092C57.3774 58.1319 57.6537 58.9559 57.9268 59.7785C57.1568 60.8019 56.39 61.8293 55.6209 62.8527C53.9521 62.3715 52.2864 61.8877 50.6185 61.4053ZM59.7539 61.5916C59.4244 62.0115 59.0934 62.4328 58.764 62.8527C58.486 62.8068 58.2064 62.7587 57.9268 62.7121L57.9474 62.5118C58.5016 62.0089 59.0557 61.5077 59.6063 61.0048C59.6535 61.2009 59.7059 61.3963 59.7539 61.5916ZM58.314 53.6324C58.41 53.6252 58.5061 53.62 58.6022 53.6137C58.9853 54.4209 59.3708 55.2279 59.7539 56.0329C59.608 56.4604 59.4599 56.8849 59.3163 57.3092C57.6473 56.4364 57.7144 55.402 58.314 53.6324ZM57.9762 107.2C58.5352 107.6 59.0979 108.001 59.6626 108.404C59.0815 108.149 58.5059 107.896 57.9268 107.647C57.9396 107.495 57.956 107.345 57.9762 107.2ZM57.9472 109.047C58.5502 109.307 59.152 109.567 59.7539 109.829C59.743 109.902 59.7331 109.977 59.7243 110.053C58.4363 110.949 57.1408 111.846 55.8506 112.742C54.7355 112.248 54.5988 111.253 54.2727 110.162C54.2814 110.086 54.2923 110.012 54.3011 109.937C55.5169 109.639 56.7336 109.344 57.9472 109.047ZM52.5366 105.351C53.1166 105.585 53.6928 105.816 54.2727 106.048C53.9624 106.229 53.6557 106.41 53.3442 106.59C53.0434 106.625 52.7451 106.656 52.4456 106.689C52.4732 106.246 52.5043 105.799 52.5366 105.351ZM52.4456 68.396C54.6399 69.0179 53.9456 68.6043 54.0425 70.2437C53.0321 69.6576 52.9626 69.376 52.4456 68.396ZM52.4456 101.403C52.4949 100.87 52.5472 100.341 52.5979 99.8086C53.4487 100.398 53.7398 100.75 54.2727 101.656C53.6607 101.57 53.0531 101.485 52.4456 101.403ZM56.0998 78.3273C55.4143 79.2094 55.4428 78.9643 54.2727 79.4826C54.5395 78.8677 54.8064 78.2504 55.0749 77.6348C55.4175 77.8662 55.7602 78.096 56.0998 78.3273ZM56.0998 70.8976C55.7172 71.2952 55.3359 71.6929 54.9533 72.0915C53.803 71.4413 54.3482 71.7004 54.8635 70.5056C55.0913 70.4192 55.3189 70.331 55.5493 70.2437C55.7354 70.462 55.9189 70.6794 56.0998 70.8976ZM55.9536 67.7529C55.3944 67.3519 54.8317 66.951 54.2727 66.5482C55.568 67.0415 55.2685 66.7403 55.9536 67.7529ZM52.4456 101.656C53.0551 102.141 53.6623 102.625 54.2727 103.108C53.3371 103.084 52.8408 102.885 52.4456 101.656ZM57.9268 101.587C57.6805 101.61 57.4312 101.633 57.1829 101.656C56.9703 101.263 56.7566 100.872 56.5439 100.477C56.3955 100.286 56.2462 100.094 56.0998 99.901C56.4291 99.8689 56.7586 99.8381 57.0889 99.8086C57.3679 100.402 57.6459 100.994 57.9268 101.587ZM56.9183 67.3723C56.646 67.0951 56.3702 66.8217 56.0998 66.5482C56.9036 67.108 56.3702 66.561 56.9183 67.3723ZM57.0329 97.8019C56.7234 97.1562 56.4102 96.5128 56.0998 95.8677C56.2307 95.3377 56.3635 94.8105 56.4954 94.2807C56.5714 94.2761 56.6483 94.2704 56.7262 94.2649C57.1246 95.4957 57.5275 96.7276 57.9268 97.9598C57.6319 97.9071 57.3343 97.8545 57.0329 97.8019ZM52.2452 119.301C52.3128 119.384 52.3788 119.465 52.4456 119.548C52.2273 120.36 52.0092 121.172 51.7909 121.981C50.4462 121.446 49.0703 120.059 48.7914 118.286C49.9448 118.624 51.0946 118.96 52.2452 119.301ZM46.9644 121.981C47.575 122.519 48.1808 123.058 48.7914 123.598C47.6227 123.087 47.5512 123.109 46.9644 121.981ZM50.1179 105.603C50.1892 106.136 50.2677 106.668 50.339 107.2C49.822 106.582 49.3085 105.967 48.7914 105.351C49.2318 105.435 49.6721 105.519 50.1179 105.603ZM48.3121 114.242C47.8616 113.128 47.4112 112.011 46.9644 110.895C48.5591 111.509 49.8099 113.334 50.6185 114.59C49.8512 114.473 49.0817 114.359 48.3121 114.242ZM49.7474 81.3446C49.8972 81.3387 50.0524 81.3346 50.2023 81.3304C49.7565 81.946 49.3143 82.5617 48.8668 83.1781C48.6457 82.7225 48.9123 82.2844 49.656 81.7492C49.6834 81.6135 49.7163 81.4795 49.7474 81.3446ZM48.7914 97.2267C48.6706 97.4719 48.5472 97.7145 48.4251 97.9598C48.0747 97.6889 47.7269 97.4193 47.3751 97.1476C47.2384 96.8549 47.1005 96.561 46.9644 96.2692C47.4427 96.217 47.9184 96.1648 48.3965 96.1126C48.5295 96.4837 48.6604 96.8549 48.7914 97.2267ZM36.002 112.742C39.6649 115.12 45.8833 117.323 46.9644 121.981C42.7194 119.968 38.5814 116.344 36.002 112.742ZM45.4967 110.958C45.9856 111.554 46.4764 112.148 46.9644 112.742C45.747 112.126 44.5276 111.511 43.3102 110.895C44.0397 110.915 44.7701 110.937 45.4967 110.958ZM58.8759 116.439C57.9513 115.512 57.0255 114.581 56.0998 113.653C57.7167 112.117 59.3383 110.584 60.9552 109.047C61.1642 110.736 61.3731 112.425 61.581 114.115C60.6797 114.889 59.7783 115.665 58.8759 116.439ZM61.581 119.527C61.7448 119.125 61.9036 118.723 62.0661 118.321C62.28 118.308 62.4925 118.297 62.7103 118.286C62.9446 118.901 63.175 119.518 63.4081 120.134C62.7999 119.931 62.1891 119.729 61.581 119.527ZM64.0438 112.742C63.8319 112.126 63.6218 111.512 63.4081 110.895C63.8538 110.977 64.2978 111.058 64.7327 111.14C64.506 111.673 64.274 112.21 64.0438 112.742ZM61.581 50.522C61.5866 50.4684 61.5916 50.4149 61.5993 50.3601C62.2034 50.2127 62.804 50.066 63.4081 49.9181C62.9867 50.534 62.5646 51.15 62.1446 51.7659C61.957 51.3515 61.7685 50.9364 61.581 50.522ZM43.1604 88.7216C42.5995 87.488 42.0405 86.257 41.4831 85.0259C43.6299 85.4958 43.2865 87.0207 43.1604 88.7216ZM38.6835 90.5693C37.1236 89.4859 36.1243 87.3374 36.002 85.0259C39.2068 85.7835 39.0336 87.0424 39.6562 89.9599C39.3315 90.1626 39.0082 90.3665 38.6835 90.5693ZM36.7953 80.9276C34.4662 78.7314 37.8613 69.9324 39.3543 67.9101C40.1393 66.9151 41.1342 66.9331 42.4458 66.5482C42.735 66.622 43.0197 66.6983 43.3102 66.7722C41.1153 70.651 39.6306 75.9287 39.1064 81.3304C38.3357 81.1945 37.5671 81.0611 36.7953 80.9276ZM33.3859 110.895C33.7585 111.519 34.1311 112.143 34.5037 112.769C34.1728 113.544 33.8378 114.318 33.5038 115.093C33.3108 115.296 33.1208 115.498 32.9299 115.701C33.7449 115.816 33.9276 115.113 35.1559 114.119C37.5198 117.955 41.1433 121.614 45.1373 123.7C44.4109 124.974 43.6804 126.249 42.9551 127.525C40.753 126.11 38.5582 124.698 36.3572 123.283C35.6005 121.888 36.6442 120.285 35.4293 119.432C34.3325 118.657 32.9132 119.777 31.7954 119.44C30.7622 118.494 29.7268 117.548 28.6937 116.602C29.6027 114.572 30.4803 112.581 32.2859 111.543C32.6543 111.326 33.0186 111.109 33.3859 110.895ZM27.0678 90.5206C27.299 88.7031 27.6938 86.825 28.1403 85.0477C28.224 85.0408 28.3058 85.034 28.3895 85.0259C28.7065 86.8583 29.0235 88.6893 29.3424 90.5206C29.509 91.4778 29.6724 92.4352 29.8389 93.3913C31.2832 97.3769 32.7286 101.366 34.1749 105.351C30.7071 103.457 28.557 99.0832 28.865 93.1981C28.0317 95.0979 28.7254 98.0843 28.9995 99.7546C26.8635 97.9534 26.5893 94.3693 27.0678 90.5206ZM23.9006 92.4171C23.5841 91.767 23.3779 91.0453 23.2811 90.1912C23.178 89.3134 23.1926 88.2978 23.3145 87.0836C23.4174 86.8611 23.5226 86.6413 23.6277 86.4215C24.0994 85.9568 24.57 85.4921 25.0395 85.0259C24.7741 86.7473 24.5086 88.4699 24.2421 90.1912C24.1296 90.9341 24.0141 91.6743 23.9006 92.4171ZM151.108 110.895C149.891 110.428 148.673 109.959 147.454 109.489C148.636 109.343 149.817 109.194 151 109.047C151.034 109.662 151.07 110.28 151.108 110.895ZM54.417 140.969C54.7349 140.798 55.0583 140.627 55.3762 140.459C55.0126 141.071 54.6381 141.692 54.2727 142.304C54.3202 141.86 54.3695 141.413 54.417 140.969ZM26.8666 77.6348C26.3492 77.5839 25.8297 77.534 25.3081 77.4831C23.3747 76.8533 21.5501 74.5992 21.3854 72.0915C24.3525 72.3577 25.3556 73.7588 26.8223 75.4703C26.8371 76.1907 26.8539 76.9121 26.8666 77.6348ZM26.651 77.4809C26.8635 73.4942 23.8112 71.0051 19.8491 71.1119C20.5287 65.5067 25.4096 62.6443 29.7623 60.7617C30.0425 60.741 30.3184 60.7204 30.5987 60.6997C29.8691 67.7316 30.423 73.7882 27.7878 79.8712C25.8423 84.3542 18.9458 84.2703 19.323 91.1792C19.3318 91.3665 19.3462 91.5618 19.3686 91.7604C20.3519 100.954 30.3752 102.824 31.7622 110.909C16.9058 118.444 35.0148 150.125 46.7666 131.517C48.8689 131.818 50.7466 132.771 53.364 131.853C54.5797 131.182 54.821 130.637 55.2938 129.238C56.692 129.959 58.0935 130.681 59.4918 131.402C59.5653 131.578 59.6386 131.757 59.7143 131.935C55.8633 134.913 53.1503 138.998 49.0192 141.796C49.1482 141.417 49.2806 141.037 49.4129 140.663C49.0502 140.6 48.6898 140.533 48.3273 140.469C48.1337 140.576 47.9357 140.684 47.741 140.789C47.5608 141.623 47.385 142.464 47.2026 143.3C49.5608 145.701 56.7164 137.007 58.8121 135.299C57.6253 139.433 54.6998 141.558 53.0747 145.34C53.2393 145.514 53.4084 145.686 53.5753 145.855C56.6609 143.649 60.4451 137.41 61.0202 132.661C62.5585 132.915 64.0991 133.168 65.6409 133.423C59.8477 141.238 44.968 158.421 37.1471 163.007C38.3317 159.277 40.2338 156.429 41.1882 153.366C41.0003 153.379 40.8145 153.39 40.632 153.406C40.4651 153.232 40.2972 153.062 40.1293 152.892C38.2282 156.632 35.0881 159.254 34.5286 164.297C34.9257 164.913 35.3495 165.244 35.7766 165.58C45.0803 164.031 60.6097 140.709 68.0335 134.343C66.0257 154.457 55.2181 157.598 45.8456 169.786C54.3617 165.547 59.5296 154.735 66.8199 148.726C66.0135 157.135 64.0091 175.928 58.9612 179.263C59.2393 179.24 59.5174 179.222 59.7976 179.202C65.4518 175.693 65.7843 161.264 67.6686 153.886C67.9356 151.299 68.2048 148.716 68.4717 146.134C71.1647 142.358 73.8588 138.585 76.5517 134.816C76.7487 134.711 76.9422 134.602 77.138 134.499C78.0412 137.328 82.1324 140.397 86.565 139.573C87.6263 139.129 88.6852 138.686 89.7408 138.243C92.4059 139.235 95.0656 140.228 97.7237 141.223C98.7713 152.675 98.3695 159.097 91.1012 167.821C98.5274 164.035 101.257 149.44 98.7842 141.697C116.054 143.692 115.363 137.876 112.084 125.326C113.098 125.34 114.11 125.358 115.123 125.377C114.566 124.538 113.049 125.161 111.893 124.517C111.368 124.179 111.472 124.242 111.143 123.745C115.253 119.123 125.137 123.715 123.068 131.386C125.905 125.022 119.625 119.37 113.573 121.642C116.158 118.588 119.288 116.077 120.925 112.031C121.123 111.925 121.315 111.818 121.513 111.713C126.248 116.676 130.989 121.642 135.727 126.605C136.003 126.585 136.284 126.563 136.564 126.544C136.78 126.253 136.991 125.963 137.204 125.671C132.693 120.326 128.174 114.975 123.661 109.63C124.143 109.409 124.626 109.191 125.114 108.973C125.896 108.231 126.756 107.986 127.618 108.101C127.366 107.977 127.125 107.856 126.897 107.742C134.162 108.471 143.427 114.505 151.002 112.56C151.702 111.349 151.733 110.692 151.313 109.515C159.381 109.718 173.895 107.024 178.514 103.112C166.105 105.714 152.118 106.596 140.717 105.074C137.348 104.682 133.983 104.288 130.616 103.895C130.429 103.909 130.242 103.922 130.053 103.936C130.958 102.313 131.864 100.688 132.77 99.0639C141.1 98.9111 162.931 98.7006 167.346 93.4913C167.021 93.0584 166.697 92.6219 166.374 92.1888C165.105 92.0074 163.831 91.827 162.564 91.6445C162.235 92.128 162.19 92.5898 162.138 93.0526C163.144 93.1606 164.144 93.2686 165.147 93.3789C158.603 95.0237 140.376 98.4939 134.422 96.4674C133.796 95.7117 134.259 93.0791 134.286 91.1815C134.295 90.806 134.285 90.4579 134.246 90.1604C142.8 87.6093 149.151 81.872 151.755 73.2035C153.244 68.2473 152.257 61.7289 155.474 58.638C157.53 58.8171 157.944 59.6809 159.453 60.269C158.653 59.1617 157.516 58.5484 156.089 58.043C155.193 58.6587 154.302 59.2743 153.411 59.8888C150.961 60.8341 148.397 58.3611 144.247 60.2896C140.875 57.4124 138.97 52.8616 134.416 51.1215C134.259 50.8573 134.1 50.5942 133.945 50.3313C135.791 48.544 137.631 46.7602 139.476 44.9753C137.662 46.4845 135.819 48.2695 133.974 50.0533C132.744 49.5031 131.507 48.9518 130.271 48.4039C130.202 48.2235 130.128 48.0478 130.053 47.8698C134.27 44.8892 138.016 43.783 142.819 44.7306C143.045 45.1706 143.281 45.6116 143.511 46.0526C143.286 46.4374 143.089 46.5409 142.896 46.6477C142.359 46.504 141.816 46.3616 141.28 46.2158C141.977 46.6247 142.702 46.7545 143.425 46.8843C143.626 46.6844 143.833 46.4868 144.035 46.2892C144.066 46.0113 144.095 45.7356 144.126 45.4577C143.077 44.525 142.757 43.8542 140.701 43.7864C141.028 43.3029 141.355 42.8216 141.684 42.3404C139.325 43.9541 134.549 44.3848 132.204 45.7874C134.008 44.3711 135.813 42.9549 137.618 41.5398C137.832 41.2504 138.047 40.9585 138.262 40.6691C134.923 42.6539 131.586 44.6421 128.248 46.6292C126.11 46.4799 123.837 45.4841 122.684 44.2896C122.499 44.3033 122.315 44.3171 122.125 44.3309C126.092 41.657 130.053 38.983 134.014 36.3101C133.95 36.0391 133.887 35.7692 133.824 35.498C129.311 38.1215 124.802 40.7437 120.294 43.3684C118.854 43.0145 117.417 42.6632 115.979 42.3093C116.111 41.0184 116.246 39.7261 116.379 38.4339C126.707 30.3431 137.038 22.2523 147.364 14.1627C147.547 14.1478 147.734 14.1351 147.921 14.1225C147.771 13.7663 147.623 13.4103 147.478 13.0543C146.328 12.5063 141.613 16.3232 139.833 17.4661C132.974 21.8572 126.908 27.3199 120.158 31.285C122.944 27.7553 128.047 24.2405 128.886 19.097C128.433 19.0396 127.975 18.9811 127.52 18.9237C126.817 19.5244 126.11 20.1273 125.399 20.7292C126.172 20.3973 126.944 20.0665 127.713 19.7334C126.218 24.2566 119.451 32.3508 115.64 34.9158C115.491 34.5585 115.345 34.2059 115.197 33.8486C117.679 29.6769 120.125 24.0775 118.976 18.7284C118.28 18.3218 117.584 17.9152 116.888 17.5074C116.146 17.5637 115.405 17.6189 114.661 17.6728C116.088 18.2368 117.058 18.3757 118.107 19.0672C118.779 24.2532 116.218 27.7588 114.842 31.9512C114.643 32.0568 114.45 32.1625 114.255 32.2705C113.333 30.5774 113.392 29.7574 111.506 29.4484C111.45 29.0866 111.396 28.7236 111.342 28.3606C111.769 27.7783 112.199 27.1994 112.63 26.6182C112.926 26.4115 113.223 26.2058 113.522 26.0014C113.824 26.5654 113.836 26.3666 113.934 27.3452C114.26 26.864 114.306 26.4022 114.353 25.9394C114.006 25.7831 113.65 25.6258 113.3 25.4696C112.368 26.4528 111.438 27.4383 110.509 28.4227C108.171 26.864 105.607 25.2307 102.33 24.6288C104.183 20.7775 109.835 14.5957 106.914 9.72323C103.359 3.79758 91.2079 10.6295 86.7598 15.3296C86.1635 15.9637 85.7008 16.5586 85.4216 17.0802C85.7052 16.8503 86.1646 16.4897 86.7598 16.0487C91.149 12.7798 102.844 4.96463 105.377 11.2119C108.035 14.7002 102.944 21.4092 101.554 24.136C96.8172 23.657 91.8621 23.2046 86.7665 23.3056C81.6218 23.4101 76.3282 24.0752 70.9712 25.8405C68.3816 26.694 57.3628 33.279 56.9423 33.1963C55.2682 31.5813 53.5908 29.9618 51.9146 28.3446C48.4129 26.5884 44.9067 24.831 41.404 23.0748C41.3829 23.2585 41.3662 23.4423 41.3484 23.6284C41.1426 23.8271 40.9357 24.0246 40.7332 24.2233C45.2215 28.0137 49.7154 31.8065 54.2014 35.598C53.5162 36.0161 52.83 36.4319 52.1426 36.85C46.6031 32.6599 42.7845 30.1157 34.5376 27.9782C34.0748 28.0126 33.6098 28.0458 33.1471 28.0804C37.9635 31.3895 42.8112 34.4219 47.6564 37.4542C47.9801 37.8884 48.3028 38.3225 48.6276 38.7578C45.1681 40.2154 43.7054 43.2317 40.7811 45.1074C36.215 42.9296 31.9903 40.9632 26.4575 39.2908C26.3284 39.6676 26.195 40.0443 26.066 40.421C29.5219 42.639 32.9769 44.8581 36.433 47.0773C36.6187 47.0634 36.8045 47.0497 36.9891 47.037C36.3941 47.4459 35.799 47.8571 35.2061 48.2672C34.3773 51.041 32.7589 54.2537 31.4141 58.166C26.2484 62.3618 19.551 62.1102 18.5121 70.6605C16.8646 71.1119 15.6933 71.2543 14.1917 72.3524C14.1528 72.7223 14.1161 73.092 14.0771 73.4608C15.0193 74.784 23.4131 78.324 25.4208 78.6709C25.8334 78.2734 26.2427 77.8761 26.651 77.4809ZM87.9496 18.366C88.2071 18.4131 88.4575 18.4588 88.713 18.5059C88.3712 18.4647 88.0284 18.4213 87.6856 18.3795C87.5101 18.3884 87.3355 18.3967 87.16 18.4056C87.9674 16.8982 90.349 16.5272 92.6411 16.6955C92.5885 17.056 92.537 17.4174 92.4803 17.7772C90.9893 17.8536 89.4942 17.9291 88.0032 18.0039C87.9874 18.1251 87.9674 18.2448 87.9496 18.366ZM91.1498 20.3537C91.8688 20.1171 92.5886 19.8816 93.3053 19.6461C94.2352 18.102 94.7661 16.4661 94.2908 14.965C92.0775 14.5279 90.7972 15.0691 88.7204 15.9374C88.3447 16.5511 87.9679 17.168 87.5965 17.7827C87.4517 18.0193 87.3036 18.2559 87.16 18.4937C87.3036 18.6545 87.4433 18.7948 87.5965 18.9216C88.2965 19.5012 89.1454 19.7016 90.7049 19.5737C91.1289 20.3004 90.6388 19.9778 89.8654 20.1827C90.2924 20.2381 90.7206 20.2971 91.1498 20.3537ZM144.288 36.9837C143.515 37.1287 142.742 37.2737 141.972 37.4164C142.448 37.3847 142.925 37.3518 143.398 37.3168C143.942 37.549 144.485 37.7835 145.025 38.0146C144.202 39.5203 143.379 41.0236 142.556 42.5271C143.824 41.0327 145.09 39.9701 145.627 37.7008C145.177 37.4606 144.733 37.2227 144.288 36.9837ZM131.01 109.047C130.432 108.031 129.804 107.357 129.183 107.2C129.739 107.721 130.378 108.332 131.01 109.047ZM123.702 131.22C123.093 131.576 122.482 131.928 121.875 132.277C122.342 132.233 122.81 132.188 123.278 132.146C123.422 131.835 123.563 131.53 123.702 131.22ZM131.01 109.047C132.865 111.143 134.262 115.15 133.859 118.286C135.964 113.739 133.561 110.903 131.01 109.047Z" fill="white"/>
</svg>
