<svg width="20" height="18" viewBox="0 0 20 18" fill="none" xmlns="http://www.w3.org/2000/svg">
<path d="M14.1788 0H5.84795C3.16403 0 0.988281 2.1697 0.988281 4.84616V13.1538C0.988281 15.8303 3.16403 18 5.84795 18H14.1788C16.8627 18 19.0384 15.8303 19.0384 13.1538V4.84616C19.0384 2.1697 16.8627 0 14.1788 0Z" fill="#7270FF"/>
<path d="M9.38893 4.4807C9.67343 4.27618 10.0282 4.1753 10.413 4.27123C11.0885 4.43963 11.3915 5.02271 11.4674 5.61894C11.5423 6.20703 11.427 6.93095 11.1756 7.70537C10.8411 8.73614 10.2393 9.93661 9.37842 11.1723C9.45516 11.4059 9.54605 11.6019 9.64864 11.7538C10.1694 12.5246 10.7007 12.6281 11.0488 12.5448C11.4376 12.4518 11.8196 12.0804 11.9396 11.5064C12.0033 11.202 12.3023 11.0068 12.6076 11.0703C12.9128 11.1337 13.1087 11.432 13.045 11.7364C12.8507 12.6653 12.1927 13.4291 11.3122 13.6397C10.3909 13.8601 9.42344 13.4356 8.71222 12.383C8.67381 12.3261 8.63721 12.267 8.60235 12.2059C8.36308 12.5025 8.10926 12.7991 7.84092 13.0937C7.63126 13.3238 7.27415 13.3409 7.04335 13.1318C6.81256 12.9228 6.79544 12.5667 7.00507 12.3365C7.42743 11.8729 7.80947 11.4065 8.15155 10.946C8.09582 10.6836 8.05526 10.4122 8.02743 10.1396C7.94071 9.29021 7.9702 8.3594 8.09319 7.5055C8.21502 6.65962 8.43482 5.84536 8.75589 5.25034C8.91575 4.9541 9.12148 4.67295 9.38893 4.4807ZM10.1391 5.36364C10.1255 5.36024 10.1073 5.35239 10.0493 5.39415C9.97408 5.44818 9.86751 5.56657 9.75024 5.78389C9.51706 6.21603 9.32328 6.8852 9.21088 7.6656C9.12527 8.25994 9.09056 8.89334 9.11395 9.49517C9.56616 8.72205 9.89489 7.99463 10.1013 7.35864C10.328 6.66008 10.3925 6.11671 10.3472 5.76076C10.303 5.41296 10.1857 5.37526 10.1391 5.36364Z" fill="white"/>
</svg>
