<svg width="19" height="18" viewBox="0 0 19 18" fill="none" xmlns="http://www.w3.org/2000/svg">
<path d="M0.258789 4.11323C0.258789 1.84159 2.08937 0 4.34744 0H14.0625C16.3206 0 18.1512 1.84159 18.1512 4.11323V13.8867C18.1512 16.1584 16.3206 18 14.0625 18H4.34744C2.08937 18 0.258789 16.1584 0.258789 13.8867V4.11323Z" fill="black"/>
<path d="M5.07617 13.1541C5.07617 12.007 6.00051 11.0771 7.14073 11.0771H9.2052V13.1541C9.2052 14.3011 8.28095 15.231 7.14073 15.231C6.00051 15.231 5.07617 14.3011 5.07617 13.1541Z" fill="#24CB71"/>
<path d="M9.20508 2.59619V6.92311H11.2696C12.4098 6.92311 13.3341 5.95458 13.3341 4.7597C13.3341 3.56483 12.4098 2.59619 11.2696 2.59619H9.20508Z" fill="#FF7237"/>
<path d="M11.2696 11.0772C12.4098 11.0772 13.3341 10.1473 13.3341 9.00026C13.3341 7.85321 12.4098 6.92334 11.2696 6.92334C10.1294 6.92334 9.20508 7.85321 9.20508 9.00026C9.20508 10.1473 10.1294 11.0772 11.2696 11.0772Z" fill="#00B6FF"/>
<path d="M5.07617 4.75965C5.07617 5.95449 6.00051 6.92311 7.14073 6.92311H9.2052V2.59619H7.14073C6.00051 2.59619 5.07617 3.56481 5.07617 4.75965Z" fill="#FF3737"/>
<path d="M5.07617 9.00021C5.07617 10.1473 6.00051 11.0772 7.14073 11.0772H9.2052V6.92334H7.14073C6.00051 6.92334 5.07617 7.85314 5.07617 9.00021Z" fill="#874FFF"/>
</svg>
