<svg width="19" height="18" viewBox="0 0 19 18" fill="none" xmlns="http://www.w3.org/2000/svg">
<mask id="mask0_761_5865" style="mask-type:luminance" maskUnits="userSpaceOnUse" x="0" y="0" width="19" height="18">
<path d="M0.816354 0C0.624292 0 0.449785 0.0820892 0.330263 0.214835C0.222874 0.328617 0.155756 0.481365 0.151367 0.648141V0.693082C0.153432 0.771795 0.169179 0.84609 0.197059 0.914671C0.198092 0.920386 0.200415 0.925842 0.20248 0.931557C0.223906 0.983252 0.251786 1.03157 0.285604 1.07547C0.297736 1.09236 0.31116 1.10794 0.325616 1.12275C0.32794 1.12613 0.331296 1.12951 0.334652 1.13314L2.45533 3.66648L3.22099 4.58089L5.51308 7.31789L6.27771 8.23152L8.32998 10.683L9.09461 11.5964V17.9999C9.54533 17.9999 9.9545 17.8199 10.2552 17.5286C10.2563 17.5286 10.2563 17.5286 10.2563 17.5276L10.4821 17.2574L15.9858 10.683L17.8706 8.43207C17.8796 8.42168 17.8884 8.41181 17.8964 8.40038C17.9364 8.34972 17.9689 8.29335 17.9924 8.23152C18.0226 8.15619 18.0384 8.07514 18.0384 7.98863V0.670742C18.0384 0.493834 17.97 0.331994 17.8582 0.213796C17.7376 0.0820892 17.5644 0 17.3718 0H0.816354Z" fill="white"/>
</mask>
<g mask="url(#mask0_761_5865)">
<path fill-rule="evenodd" clip-rule="evenodd" d="M0.816354 0C0.624292 0 0.449785 0.0820892 0.330263 0.214835C0.222874 0.328617 0.155756 0.481365 0.151367 0.648141V0.693082C0.153432 0.771795 0.169179 0.84609 0.197059 0.914671C0.198092 0.920386 0.200415 0.925842 0.20248 0.931557C0.223906 0.983252 0.251786 1.03157 0.285604 1.07547C0.297736 1.09236 0.31116 1.10794 0.325616 1.12275C0.32794 1.12613 0.331296 1.12951 0.334652 1.13314L2.45533 3.66648L3.22099 4.58089L5.51308 7.31789L6.27771 8.23152L8.32998 10.683L9.09461 11.5964V17.9999C9.54533 17.9999 9.9545 17.8199 10.2552 17.5286C10.2563 17.5286 10.2563 17.5286 10.2563 17.5276L10.4821 17.2574L15.9858 10.683L17.8706 8.43207C17.8796 8.42168 17.8884 8.41181 17.8964 8.40038C17.9364 8.34972 17.9689 8.29335 17.9924 8.23152C18.0226 8.15619 18.0384 8.07514 18.0384 7.98863V0.670742C18.0384 0.493834 17.97 0.331994 17.8582 0.213796C17.7376 0.0820892 17.5644 0 17.3718 0H0.816354Z" fill="url(#paint0_linear_761_5865)"/>
</g>
<path fill-rule="evenodd" clip-rule="evenodd" d="M9.09487 15.2616V17.9999C8.6444 17.9999 8.23524 17.8199 7.9345 17.5287C7.93321 17.5287 7.93321 17.5287 7.93321 17.5274L7.70759 17.2575L2.20389 10.6828L0.330263 8.44536C0.325874 8.44198 0.322519 8.43731 0.319163 8.43289L0.289992 8.39808C0.287669 8.39574 0.285604 8.39366 0.28328 8.39029C0.247656 8.34171 0.217453 8.28897 0.196027 8.23156C0.169179 8.16298 0.153691 8.08869 0.151367 8.01101V7.96607C0.156014 7.79748 0.222874 7.64655 0.330263 7.53173C0.451076 7.40002 0.624292 7.31793 0.816612 7.31793H2.44216L3.20679 8.23156L5.25932 10.6828L8.62427 14.7013L9.09383 15.2627L9.09487 15.2616Z" fill="#FCD1CA"/>
<path fill-rule="evenodd" clip-rule="evenodd" d="M9.09487 11.5964V15.2616L9.09383 15.2626L8.62427 14.7013L5.25932 10.6828L3.20679 8.23155L2.44216 7.31792L0.317872 4.7825C0.309095 4.77211 0.30006 4.76094 0.291025 4.74977C0.252044 4.69911 0.219518 4.64274 0.196027 4.58092C0.169179 4.51233 0.153691 4.43804 0.151367 4.35933V4.31439C0.156014 4.14683 0.222874 3.9959 0.330263 3.88134C0.449785 3.74859 0.624292 3.6665 0.816612 3.6665H2.45559L3.22125 4.58092L5.51308 7.31792L6.27771 8.23155L8.33024 10.6828L9.09487 11.5964Z" fill="#FF9D8D"/>
<defs>
<linearGradient id="paint0_linear_761_5865" x1="1572.78" y1="-178.01" x2="228.25" y2="1158.08" gradientUnits="userSpaceOnUse">
<stop stop-color="#FF6660"/>
<stop offset="1" stop-color="#FB4444"/>
</linearGradient>
</defs>
</svg>
