<svg width="19" height="18" viewBox="0 0 19 18" fill="none" xmlns="http://www.w3.org/2000/svg">
<path d="M0.81543 4.5C0.81543 2.01472 2.83595 0 5.32839 0H14.3543C16.8467 0 18.8673 2.01472 18.8673 4.5V13.5C18.8673 15.9853 16.8467 18 14.3543 18H5.32839C2.83595 18 0.81543 15.9853 0.81543 13.5V4.5Z" fill="#1868DB"/>
<mask id="mask0_761_5907" style="mask-type:luminance" maskUnits="userSpaceOnUse" x="5" y="4" width="10" height="10">
<path d="M14.4752 4.57031H5.16406V13.4466H14.4752V4.57031Z" fill="white"/>
</mask>
<g mask="url(#mask0_761_5907)">
<path d="M13.8805 10.6988C11.095 9.35576 10.2812 9.1551 9.1076 9.1551C7.73047 9.1551 6.5568 9.72626 5.50833 11.3317L5.33619 11.5941C5.19535 11.8102 5.16406 11.8874 5.16406 11.9801C5.16406 12.0727 5.211 12.1499 5.38313 12.2579L7.15146 13.3539C7.24536 13.4157 7.32363 13.4466 7.40185 13.4466C7.49576 13.4466 7.55834 13.4002 7.65224 13.2613L7.93393 12.8291C8.3721 12.1653 8.7633 11.9492 9.26409 11.9492C9.70226 11.9492 10.2187 12.0727 10.8602 12.3814L12.7068 13.2459C12.8946 13.3385 13.098 13.2922 13.1919 13.0761L14.0683 11.1619C14.1622 10.9458 14.0996 10.8068 13.8805 10.6988ZM5.75872 7.31809C8.54423 8.66111 9.35796 8.86177 10.5316 8.86177C11.9087 8.86177 13.0824 8.29061 14.1309 6.68516L14.303 6.42274C14.4439 6.20663 14.4752 6.12945 14.4752 6.03682C14.4752 5.9442 14.4282 5.86702 14.2561 5.75895L12.4877 4.66294C12.3939 4.60117 12.3156 4.57031 12.2374 4.57031C12.1435 4.57031 12.0809 4.61663 11.987 4.75556L11.7053 5.18779C11.2671 5.85157 10.8759 6.06769 10.3751 6.06769C9.93697 6.06769 9.42057 5.9442 8.77894 5.63546L6.93239 4.77097C6.74461 4.67839 6.54115 4.7247 6.44728 4.94081L5.57094 6.855C5.47704 7.07111 5.53965 7.21005 5.75872 7.31809Z" fill="white"/>
</g>
</svg>
