<svg width="59" height="18" viewBox="0 0 59 18" fill="none" xmlns="http://www.w3.org/2000/svg">
<path d="M29.837 14.1484C29.7678 13.838 29.6673 13.0473 29.6601 12.6777C29.3779 12.7925 29.0542 12.9051 28.7008 13.0075C28.1084 13.1789 27.4513 13.3153 26.7864 13.3845L26.7866 13.3827L26.7856 13.3829C26.2095 13.4459 25.7964 13.4447 25.3288 13.4146C24.2439 13.3348 23.3461 13.006 22.7689 12.3718C22.2358 11.7861 21.8678 10.8196 22.0269 9.20602C22.2378 9.13899 22.4636 9.10213 22.7049 9.10213L22.8755 9.10206C24.0464 9.10213 24.6653 9.63104 25.0197 10.2868C25.4028 10.9956 25.4877 11.8918 25.4278 12.5168L25.4253 12.5434L25.4247 12.5701C25.4243 12.5912 25.4236 12.6127 25.4228 12.6345C25.8354 12.6672 26.3933 12.6437 26.8577 12.5855L26.8587 12.5853C26.9251 11.7709 26.82 10.6043 26.2777 9.60094C25.6912 8.51591 24.6085 7.66443 22.8753 7.66443L22.7048 7.66451C21.41 7.66451 20.4378 8.31445 19.7759 9.059C19.1222 9.79441 18.7276 10.6653 18.557 11.264L18.5522 11.2809L18.5482 11.298C18.5034 11.4904 18.464 11.6877 18.4306 11.8884C18.3804 11.9619 18.343 12.0462 18.3226 12.1386C17.8189 14.4115 16.771 15.5877 15.8119 16.1135C14.8066 16.6646 13.9298 16.5114 13.5913 16.2522C13.4796 16.1666 13.382 16.0158 13.3374 15.6965C13.2911 15.3658 13.3149 14.9415 13.3804 14.4201C13.4099 14.1847 13.4462 13.942 13.4845 13.6885L13.4922 13.6376L13.4925 13.635L13.4945 13.6224C13.5359 13.3481 13.5791 13.0615 13.6144 12.777C13.6843 12.2146 13.7306 11.6113 13.6628 11.0476C13.5688 10.2646 13.2938 9.62456 12.839 9.17067C12.3803 8.7129 11.7993 8.50539 11.2135 8.48264C11.1679 8.48084 11.1221 8.48019 11.0763 8.48063C10.6933 8.49373 9.51105 8.57228 8.32281 9.75999C8.30889 9.77425 8.29483 9.78886 8.28106 9.80326C8.34705 9.13676 8.41469 8.45946 8.48528 7.79965C8.6045 6.68444 8.73268 5.6115 8.87658 4.69488C9.02262 3.76441 9.17793 3.04443 9.33904 2.60867C9.71915 1.5806 10.3822 1.38403 10.7369 1.45712C11.0538 1.52242 11.5764 1.91139 11.4435 3.10096C11.218 5.12017 10.4741 6.75457 9.72323 7.94459C10.2192 7.77402 10.8319 7.63787 11.5027 7.71858C12.1271 6.51396 12.6696 5.0191 12.866 3.26122C13.0521 1.5943 12.2976 0.311139 11.0245 0.0488237C9.78923 -0.205705 8.54948 0.61464 7.99721 2.10817C7.78234 2.68931 7.60997 3.53278 7.46268 4.47094C7.31319 5.42294 7.1821 6.52376 7.0621 7.64615C6.97788 8.43368 6.89934 9.22834 6.82371 9.99356C6.75935 10.6447 6.69705 11.2753 6.63521 11.8612L6.63625 11.8614L6.36723 13.9642C6.04617 15.1673 5.82675 16.3568 5.70436 17.1739C5.64554 17.5665 5.91471 17.9326 6.30558 17.9917C6.69645 18.0507 7.06098 17.7804 7.1198 17.3878C7.24955 16.5215 7.49448 15.2169 7.85482 13.9573C8.22374 12.6674 8.6829 11.54 9.19198 10.935C9.7596 10.2603 10.5583 9.89593 11.1583 9.91918C11.4403 9.93013 11.6624 10.0232 11.8301 10.1904C12.0015 10.3616 12.1758 10.6711 12.2418 11.2198C12.288 11.6044 12.2603 12.0666 12.1941 12.599C12.1614 12.8617 12.1211 13.1299 12.0793 13.4067L12.0762 13.4272C12.0359 13.6943 11.9942 13.97 11.9603 14.2401C11.8919 14.7842 11.8459 15.3668 11.92 15.8965C11.9956 16.4378 12.2086 17.0012 12.7235 17.3954C13.6384 18.096 15.1542 18.1119 16.4977 17.3754C17.2626 16.956 17.9874 16.2925 18.5803 15.3481C18.6127 15.4532 18.6483 15.5566 18.687 15.6582C18.9434 16.3298 19.3519 16.9449 19.9624 17.3798C20.5792 17.819 21.3476 18.0351 22.2494 17.9948C24.0578 17.9139 25.2285 16.9536 25.9234 15.8222C25.9575 15.7667 25.9905 15.7106 26.0225 15.6542C25.5893 15.6614 24.9893 15.645 24.3681 15.5337L24.3671 15.5335C23.8766 16.1042 23.1825 16.514 22.1857 16.5586C21.5574 16.5867 21.1131 16.4369 20.7904 16.2071C20.4616 15.973 20.204 15.6161 20.0236 15.1436C19.6569 14.1829 19.6572 12.8602 19.9378 11.6433C20.037 11.3029 20.2475 10.8169 20.5711 10.3603C20.6445 11.6159 21.0415 12.6047 21.7124 13.3418C22.5383 14.2492 23.6826 14.6669 24.8369 14.8104L24.8406 14.8107L24.844 14.8111L24.8499 14.8118C25.3756 14.8834 26.075 14.8722 26.3973 14.8557C26.405 14.8554 26.4125 14.8554 26.4195 14.8558C27.3646 14.8027 28.2945 14.6212 29.0971 14.3889C29.3556 14.3141 29.6033 14.2332 29.837 14.1484Z" fill="#1C0694"/>
<path d="M5.49773 14.6064L5.75162 12.6218C5.23477 13.0387 4.56798 13.5161 3.85873 13.9936C2.78124 14.719 1.66469 15.4059 0.968632 15.815C0.627476 16.0154 0.51273 16.4557 0.71234 16.7983C0.911949 17.141 1.35033 17.2563 1.69149 17.0558C2.40831 16.6345 3.55007 15.9321 4.65572 15.1877C4.93767 14.9979 5.22139 14.8026 5.49773 14.6064Z" fill="#1C0694"/>
<path d="M35.916 0.207566C34.7892 -0.336474 33.6878 0.254877 32.9092 1.21644C32.1198 2.19106 31.4744 3.72283 31.084 5.67906C30.5432 8.39061 30.4297 9.84465 30.4297 11.9117C30.4297 11.9272 30.4302 11.9425 30.431 11.9577C30.4305 11.9675 30.43 11.9774 30.4297 11.9873C30.4277 12.0859 30.4272 12.1906 30.4284 12.3004C30.4347 12.9168 30.5315 13.6218 30.5726 13.845C30.5734 13.8489 30.5739 13.853 30.5744 13.857C30.6733 14.4148 30.8308 14.9968 31.0718 15.5421C31.5605 16.648 32.4341 17.669 33.8763 17.9333C33.9233 17.9497 33.9728 17.9613 34.0243 17.9676C35.6821 18.1703 37.6532 17.4157 39.3826 15.817C39.3878 15.8113 39.3932 15.8058 39.3995 15.8006C39.6426 15.5967 40.1639 15.0343 40.3947 14.7511L40.3939 14.7505C41.4688 13.4644 42.4166 11.7928 43.0956 9.72463C45.3909 11.4778 46.3395 13.009 45.9991 14.8152C45.8464 15.6269 44.9839 16.3704 43.7884 16.5309C43.6584 16.5483 43.527 16.5583 43.3943 16.5604L43.3537 16.5604C43.3462 16.5604 43.3386 16.5605 43.3311 16.5608C42.4676 16.558 41.5663 16.2175 40.8754 15.3933L40.8746 15.3943C40.6461 15.6832 40.0779 16.2468 39.8773 16.4306L39.8765 16.4313C40.8514 17.5293 42.1298 17.9991 43.3501 17.9981H43.3537C46.0569 17.9981 48.3648 17.4679 50.1808 16.3659C50.9918 15.8736 51.6955 15.2728 52.287 14.5678C52.287 14.6522 52.2891 14.728 52.2938 14.7932C52.2978 14.8485 52.3014 14.9071 52.3051 14.9683L52.3063 14.9868C52.3271 15.3342 52.3531 15.7629 52.4744 16.153C52.6397 16.684 52.9687 17.1472 53.5635 17.5353C54.6701 18.2572 55.8366 17.9845 56.3774 17.7351C56.9059 17.4914 57.6505 17.104 58.1626 16.1053L58.1754 16.081C58.2814 15.8752 58.597 15.2621 58.6137 14.6205C58.6241 14.2236 58.3123 13.8935 57.9172 13.883C57.5219 13.8725 57.1933 14.1858 57.1828 14.5827C57.1797 14.7077 57.142 14.8645 57.0785 15.0345C57.0168 15.1995 56.9447 15.3411 56.8929 15.4419C56.6009 16.0114 56.2082 16.2311 55.7801 16.4286C55.4946 16.5603 54.889 16.6857 54.343 16.3296C54.0135 16.1147 53.9013 15.9196 53.8407 15.7243C53.7756 15.5154 53.7616 15.2984 53.7398 14.9602L53.7368 14.9147C53.7322 14.8448 53.7272 14.7699 53.7213 14.6889C53.7117 14.5545 53.7231 14.2287 53.7627 13.7386C53.8006 13.2677 53.8602 12.6913 53.9321 12.0866C54.0445 11.1392 54.1845 10.1416 54.3143 9.38608H57.0207C57.4158 9.38608 57.7364 9.06431 57.7364 8.66731C57.7364 8.2703 57.4158 7.94846 57.0207 7.94846H54.596L55.1396 5.27018C55.2185 4.8812 54.9684 4.50157 54.5811 4.42229C54.1939 4.34299 53.816 4.59405 53.7369 4.98304L53.1351 7.94846H50.7864C50.3911 7.94846 50.0707 8.2703 50.0707 8.66731C50.0707 9.06431 50.3911 9.38608 50.7864 9.38608H52.8629C52.7862 9.85379 52.7083 10.3838 52.636 10.924C52.6258 10.9473 52.617 10.9713 52.6092 10.9961C52.0273 12.8445 50.9566 14.2153 49.4404 15.1354C48.7315 15.5657 47.9148 15.9034 46.9909 16.1417C47.189 15.8238 47.3326 15.4696 47.4055 15.0824C47.9023 12.4464 46.3885 10.4432 43.997 8.60726C44.2612 8.55347 44.4837 8.3513 44.5511 8.07071C44.6435 7.68472 44.4069 7.2965 44.0228 7.20362C43.4372 7.06214 42.866 7.1034 42.4757 7.42502C42.3093 7.51927 42.1811 7.67975 42.1323 7.88071L42.1274 7.90029C42.0824 8.01038 42.0559 8.12191 42.0441 8.23005C41.2477 11.262 39.8765 13.4041 38.4188 14.7539C37.0562 16.0159 35.6566 16.5566 34.576 16.562C34.5698 16.5615 34.5635 16.5612 34.5573 16.5609L34.5487 16.5607C33.4484 16.5332 32.7933 15.8939 32.3801 14.9587C32.15 14.4385 32.0118 13.8546 31.9363 13.3028C31.8481 12.6822 31.8535 12.044 31.8627 11.6734L31.8617 11.6742C31.8702 9.82895 31.986 8.47557 32.4875 5.96143C32.8524 4.13283 33.4307 2.85083 34.0196 2.12357C34.619 1.38326 35.0502 1.38461 35.2959 1.50325C35.5348 1.6186 35.8213 1.98871 35.8388 2.98145C35.8554 3.93523 35.6084 5.24467 35.0669 6.81331C34.4935 8.47485 33.572 9.93616 32.6557 10.9295C32.6403 11.6296 32.6294 12.4865 32.6728 12.8612C34.117 11.7544 35.604 9.64593 36.4194 7.28426C36.9888 5.63434 37.2907 4.1453 37.2699 2.95613C37.2498 1.80591 36.9123 0.688612 35.916 0.207566Z" fill="#1C0694"/>
</svg>
