<svg width="32" height="32" viewBox="0 0 32 32" fill="none" xmlns="http://www.w3.org/2000/svg">
<path d="M15.9997 1.33331C7.89701 1.33331 1.33301 7.89731 1.33301 16C1.33301 22.4893 5.53167 27.972 11.361 29.9146C12.0943 30.0426 12.369 29.604 12.369 29.2186C12.369 28.8693 12.3517 27.7146 12.3517 26.4866C8.66634 27.1653 7.71301 25.588 7.41967 24.764C7.25434 24.3413 6.53967 23.04 5.91701 22.692C5.40367 22.416 4.66901 21.7386 5.89834 21.72C7.05301 21.7013 7.87834 22.7826 8.15301 23.224C9.47301 25.4413 11.581 24.8186 12.425 24.4333C12.553 23.48 12.9383 22.8386 13.3597 22.472C10.0957 22.1053 6.68634 20.84 6.68634 15.2293C6.68634 13.6346 7.25434 12.3146 8.19034 11.288C8.04234 10.9213 7.52901 9.41865 8.33701 7.40131C8.33701 7.40131 9.56501 7.01731 12.369 8.90531C13.563 8.57405 14.7966 8.40762 16.0357 8.41065C17.2837 8.41065 18.5303 8.57465 19.7023 8.90531C22.5077 6.99865 23.7357 7.40131 23.7357 7.40131C24.5423 9.41865 24.0303 10.9213 23.8837 11.288C24.8183 12.3146 25.3863 13.6173 25.3863 15.2293C25.3863 20.8586 21.9583 22.1053 18.6943 22.472C19.2263 22.9306 19.685 23.8106 19.685 25.1853C19.685 27.1466 19.6663 28.724 19.6663 29.2186C19.6663 29.604 19.941 30.0613 20.6743 29.9146C26.4677 27.972 30.6663 22.472 30.6663 16C30.6663 7.89731 24.1037 1.33331 15.9997 1.33331Z" fill="white"/>
</svg>
