<svg width="19" height="18" viewBox="0 0 19 18" fill="none" xmlns="http://www.w3.org/2000/svg">
<path d="M1.16406 6.825C1.16406 4.82981 1.16406 3.83222 1.55235 3.07016C1.8939 2.39983 2.43889 1.85484 3.10922 1.51329C3.87128 1.125 4.86888 1.125 6.86406 1.125H11.2141C13.2092 1.125 14.2068 1.125 14.9689 1.51329C15.6392 1.85484 16.1842 2.39983 16.5258 3.07016C16.9141 3.83222 16.9141 4.82981 16.9141 6.825V11.175C16.9141 13.1702 16.9141 14.1678 16.5258 14.9298C16.1842 15.6002 15.6392 16.1452 14.9689 16.4867C14.2068 16.875 13.2093 16.875 11.2141 16.875H6.86406C4.86888 16.875 3.87128 16.875 3.10922 16.4867C2.43889 16.1452 1.8939 15.6002 1.55235 14.9298C1.16406 14.1678 1.16406 13.1702 1.16406 11.175V6.825Z" fill="#330000"/>
<path d="M8.79655 11.0229H6.35589L5.85931 12.605C5.84552 12.6638 5.7914 12.7055 5.73252 12.7026H4.49634C4.42585 12.7026 4.4012 12.6628 4.42238 12.5834L6.53549 6.34151C6.55664 6.27651 6.57778 6.20246 6.59891 6.11936C6.62655 5.97478 6.6407 5.82783 6.64117 5.6805C6.63512 5.63697 6.67337 5.59853 6.71513 5.60463H8.39504C8.44426 5.60463 8.47244 5.62269 8.47957 5.65882L10.878 12.5942C10.8991 12.6665 10.878 12.7026 10.8146 12.7026H9.44104C9.39286 12.708 9.34686 12.675 9.33539 12.6267L8.79655 11.0229ZM6.73625 9.6575H8.40562C8.13135 8.72028 7.82182 7.79537 7.57095 6.85084C7.30028 7.79696 7.00497 8.73927 6.73625 9.6575Z" fill="#FF9A00"/>
<path d="M12.3042 6.75328C12.1964 6.75771 12.089 6.73877 11.9888 6.69769C11.8887 6.65661 11.7982 6.59431 11.7231 6.51487C11.6483 6.43199 11.5901 6.33475 11.552 6.22875C11.514 6.12274 11.4967 6.01006 11.5012 5.89719C11.4974 5.78543 11.5166 5.6741 11.5575 5.57046C11.5985 5.46683 11.6603 5.37322 11.7389 5.29576C11.8168 5.2191 11.9087 5.15903 12.0094 5.11904C12.11 5.07905 12.2174 5.05993 12.3253 5.06278C12.5789 5.06278 12.7779 5.14044 12.9223 5.29576C12.9952 5.37648 13.0518 5.47115 13.089 5.57435C13.1262 5.67755 13.1431 5.78726 13.1389 5.89719C13.1433 6.0105 13.1255 6.12357 13.0864 6.22968C13.0474 6.33579 12.988 6.43278 12.9117 6.51487C12.832 6.59548 12.7369 6.65827 12.6323 6.6993C12.5277 6.74034 12.416 6.75871 12.3042 6.75328ZM11.5752 12.5942V7.41429C11.5752 7.34928 11.6032 7.31676 11.6597 7.31676H12.9593C13.0156 7.31676 13.0438 7.34927 13.0438 7.41429V12.5942C13.0438 12.6665 13.0156 12.7026 12.9593 12.7025H11.6703C11.6069 12.7025 11.5752 12.6664 11.5752 12.5942Z" fill="#FF9A00"/>
</svg>
