<svg width="59" height="19" viewBox="0 0 59 19" fill="none" xmlns="http://www.w3.org/2000/svg">
<path d="M29.3087 14.1759C29.2395 13.8655 29.139 13.0748 29.1317 12.7052C28.8496 12.82 28.5259 12.9326 28.1725 13.035C27.5801 13.2064 26.923 13.3429 26.2581 13.412L26.2583 13.4103L26.2573 13.4104C25.6812 13.4734 25.2681 13.4723 24.8005 13.4421C23.7156 13.3623 22.8178 13.0335 22.2406 12.3993C21.7075 11.8137 21.3395 10.8471 21.4986 9.23355C21.7095 9.16652 21.9353 9.12966 22.1766 9.12966L22.3472 9.12958C23.5181 9.12966 24.137 9.65857 24.4914 10.3143C24.8744 11.0231 24.9594 11.9193 24.8995 12.5443L24.897 12.571L24.8964 12.5976C24.896 12.6188 24.8953 12.6402 24.8944 12.662C25.3071 12.6947 25.865 12.6713 26.3294 12.613L26.3304 12.6129C26.3967 11.7985 26.2917 10.6318 25.7494 9.62847C25.1629 8.54343 24.0802 7.69196 22.3469 7.69196L22.1764 7.69203C20.8817 7.69203 19.9095 8.34198 19.2476 9.08653C18.5939 9.82193 18.1992 10.6928 18.0287 11.2915L18.0239 11.3084L18.0199 11.3255C17.9751 11.518 17.9356 11.7152 17.9023 11.9159C17.8521 11.9894 17.8147 12.0737 17.7942 12.1661C17.2905 14.439 16.2427 15.6153 15.2836 16.141C14.2783 16.6921 13.4015 16.539 13.063 16.2797C12.9512 16.1941 12.8537 16.0434 12.8091 15.7241C12.7628 15.3933 12.7865 14.969 12.852 14.4476C12.8816 14.2123 12.9179 13.9696 12.9562 13.7161L12.9639 13.6651L12.9642 13.6625L12.9662 13.6499C13.0076 13.3756 13.0507 13.0891 13.0861 12.8045C13.156 12.2421 13.2022 11.6389 13.1345 11.0751C13.0405 10.2922 12.7655 9.65209 12.3107 9.1982C11.852 8.74042 11.271 8.53292 10.6852 8.51017C10.6396 8.50837 10.5938 8.50772 10.548 8.50815C10.165 8.52126 8.98273 8.59981 7.79449 9.78752C7.78057 9.80178 7.76651 9.81639 7.75274 9.83079C7.81873 9.16429 7.88637 8.48698 7.95696 7.82718C8.07618 6.71197 8.20436 5.63903 8.34826 4.7224C8.4943 3.79194 8.64961 3.07196 8.81072 2.6362C9.19082 1.60813 9.85385 1.41156 10.2086 1.48465C10.5255 1.54994 11.048 1.93891 10.9152 3.12849C10.6897 5.1477 9.94581 6.7821 9.19491 7.97211C9.69087 7.80154 10.3036 7.66539 10.9744 7.7461C11.5987 6.54149 12.1413 5.04663 12.3376 3.28875C12.5238 1.62183 11.7693 0.338666 10.4962 0.0763506C9.26091 -0.178179 8.02116 0.642167 7.46889 2.1357C7.25402 2.71684 7.08165 3.5603 6.93436 4.49847C6.78487 5.45047 6.65378 6.55129 6.53378 7.67367C6.44956 8.46121 6.37102 9.25587 6.29539 10.0211C6.23103 10.6723 6.16873 11.3028 6.10689 11.8888L6.10793 11.8889L5.83891 13.9917C5.51785 15.1949 5.29843 16.3843 5.17604 17.2014C5.11722 17.594 5.38639 17.9602 5.77726 18.0192C6.16813 18.0782 6.53266 17.8079 6.59148 17.4153C6.72123 16.549 6.96616 15.2444 7.3265 13.9848C7.69542 12.6949 8.15458 11.5675 8.66366 10.9625C9.23128 10.2878 10.0299 9.92345 10.63 9.94671C10.912 9.95765 11.1341 10.0507 11.3018 10.2179C11.4732 10.3892 11.6475 10.6986 11.7135 11.2473C11.7597 11.6319 11.7319 12.0941 11.6657 12.6265C11.6331 12.8893 11.5928 13.1574 11.551 13.4342L11.5479 13.4548C11.5076 13.7218 11.4659 13.9976 11.432 14.2676C11.3636 14.8117 11.3175 15.3944 11.3916 15.9241C11.4673 16.4653 11.6803 17.0287 12.1952 17.423C13.1101 18.1235 14.6258 18.1394 15.9694 17.4029C16.7343 16.9836 17.459 16.3201 18.052 15.3756C18.0844 15.4808 18.12 15.5842 18.1587 15.6858C18.4151 16.3573 18.8235 16.9725 19.4341 17.4073C20.0509 17.8465 20.8193 18.0626 21.7211 18.0223C23.5295 17.9414 24.7002 16.9812 25.3951 15.8498C25.4292 15.7942 25.4622 15.7381 25.4942 15.6817C25.061 15.6889 24.461 15.6725 23.8398 15.5613L23.8388 15.5611C23.3483 16.1317 22.6542 16.5415 21.6574 16.5861C21.0291 16.6142 20.5848 16.4644 20.2621 16.2346C19.9333 16.0005 19.6756 15.6436 19.4952 15.1711C19.1285 14.2104 19.1289 12.8878 19.4095 11.6708C19.5087 11.3304 19.7192 10.8444 20.0428 10.3878C20.1161 11.6435 20.5132 12.6322 21.1841 13.3693C22.01 14.2767 23.1543 14.6945 24.3086 14.838L24.3123 14.8382L24.3156 14.8386L24.3216 14.8393C24.8472 14.9109 25.5466 14.8997 25.8689 14.8832C25.8767 14.8829 25.8841 14.8829 25.8912 14.8833C26.8363 14.8302 27.7662 14.6487 28.5688 14.4164C28.8272 14.3416 29.075 14.2607 29.3087 14.1759Z" fill="#6C51FC"/>
<path d="M4.9694 14.634L5.2233 12.6493C4.70645 13.0662 4.03966 13.5436 3.33041 14.0211C2.25292 14.7465 1.13637 15.4335 0.440311 15.8425C0.0991554 16.0429 -0.0155908 16.4832 0.18402 16.8259C0.383629 17.1685 0.822011 17.2838 1.16317 17.0833C1.87999 16.6621 3.02175 15.9596 4.1274 15.2152C4.40935 15.0254 4.69307 14.8302 4.9694 14.634Z" fill="#6C51FC"/>
<path d="M35.3877 0.235093C34.2609 -0.308948 33.1595 0.282404 32.3808 1.24397C31.5915 2.21859 30.946 3.75035 30.5557 5.70659C30.0149 8.41814 29.9014 9.87218 29.9014 11.9392C29.9014 11.9547 29.9019 11.97 29.9027 11.9852C29.9022 11.995 29.9017 12.0049 29.9014 12.0148C29.8993 12.1134 29.8988 12.2181 29.9001 12.3279C29.9064 12.9443 30.0032 13.6493 30.0443 13.8725C30.0451 13.8765 30.0456 13.8805 30.0461 13.8845C30.145 14.4424 30.3025 15.0243 30.5435 15.5696C31.0322 16.6755 31.9058 17.6966 33.3479 17.9609C33.395 17.9772 33.4445 17.9888 33.496 17.9951C35.1538 18.1978 37.1249 17.4433 38.8542 15.8446C38.8595 15.8388 38.8649 15.8333 38.8712 15.8282C39.1143 15.6242 39.6355 15.0618 39.8664 14.7786L39.8656 14.778C40.9404 13.492 41.8882 11.8203 42.5672 9.75215C44.8626 11.5053 45.8112 13.0366 45.4708 14.8427C45.318 15.6544 44.4556 16.398 43.26 16.5584C43.1301 16.5758 42.9987 16.5858 42.866 16.5879L42.8254 16.588C42.8179 16.588 42.8103 16.588 42.8027 16.5883C41.9392 16.5855 41.038 16.245 40.3471 15.4209L40.3463 15.4218C40.1177 15.7107 39.5496 16.2743 39.349 16.4582L39.3482 16.4589C40.3231 17.5569 41.6014 18.0266 42.8218 18.0256H42.8254C45.5286 18.0256 47.8365 17.4955 49.6525 16.3934C50.4635 15.9012 51.1672 15.3003 51.7587 14.5953C51.7587 14.6798 51.7608 14.7556 51.7655 14.8207C51.7695 14.876 51.7731 14.9346 51.7768 14.9958L51.778 15.0143C51.7988 15.3617 51.8248 15.7904 51.9461 16.1805C52.1114 16.7115 52.4403 17.1748 53.0352 17.5628C54.1418 18.2847 55.3083 18.0121 55.849 17.7626C56.3776 17.5189 57.1222 17.1315 57.6343 16.1329L57.6471 16.1085C57.753 15.9027 58.0687 15.2897 58.0854 14.648C58.0958 14.2511 57.784 13.921 57.3889 13.9105C56.9936 13.9001 56.6649 14.2133 56.6545 14.6102C56.6514 14.7353 56.6136 14.892 56.5502 15.0621C56.4885 15.227 56.4164 15.3687 56.3646 15.4694C56.0726 16.039 55.6799 16.2586 55.2517 16.4561C54.9662 16.5878 54.3607 16.7132 53.8146 16.3571C53.4852 16.1422 53.373 15.9471 53.3124 15.7518C53.2473 15.543 53.2333 15.3259 53.2115 14.9878L53.2084 14.9423C53.2038 14.8724 53.1989 14.7974 53.1929 14.7165C53.1833 14.582 53.1947 14.2563 53.2343 13.7661C53.2723 13.2952 53.3319 12.7188 53.4038 12.1141C53.5162 11.1667 53.6562 10.1692 53.786 9.41361H56.4923C56.8874 9.41361 57.2081 9.09184 57.2081 8.69483C57.2081 8.29783 56.8874 7.97599 56.4923 7.97599H54.0676L54.6113 5.2977C54.6901 4.90873 54.4401 4.5291 54.0528 4.44982C53.6656 4.37052 53.2876 4.62157 53.2086 5.01057L52.6068 7.97599H50.2581C49.8628 7.97599 49.5424 8.29783 49.5424 8.69483C49.5424 9.09184 49.8628 9.41361 50.2581 9.41361H52.3346C52.2578 9.88132 52.18 10.4113 52.1077 10.9515C52.0975 10.9748 52.0887 10.9988 52.0809 11.0236C51.499 12.8721 50.4283 14.2429 48.9121 15.1629C48.2032 15.5932 47.3865 15.9309 46.4626 16.1692C46.6606 15.8513 46.8043 15.4971 46.8772 15.11C47.374 12.4739 45.8602 10.4707 43.4687 8.63478C43.7329 8.581 43.9554 8.37883 44.0228 8.09824C44.1152 7.71225 43.8786 7.32403 43.4945 7.23115C42.9089 7.08967 42.3377 7.13092 41.9473 7.45255C41.781 7.54679 41.6527 7.70728 41.604 7.90823L41.5991 7.92782C41.5541 8.03791 41.5276 8.14943 41.5158 8.25758C40.7194 11.2895 39.3482 13.4316 37.8905 14.7814C36.5279 16.0434 35.1283 16.5842 34.0477 16.5895C34.0414 16.589 34.0352 16.5888 34.029 16.5885L34.0204 16.5883C32.92 16.5607 32.265 15.9214 31.8517 14.9863C31.6217 14.4661 31.4835 13.8821 31.408 13.3303C31.3198 12.7097 31.3252 12.0716 31.3343 11.7009L31.3333 11.7018C31.3419 9.85648 31.4577 8.5031 31.9592 5.98896C32.3241 4.16036 32.9023 2.87836 33.4913 2.1511C34.0906 1.41079 34.5219 1.41214 34.7676 1.53077C35.0065 1.64613 35.293 2.01624 35.3105 3.00898C35.3271 3.96275 35.0801 5.27219 34.5385 6.84083C33.9652 8.50238 33.0436 9.96369 32.1273 10.957C32.112 11.6571 32.1011 12.514 32.1445 12.8887C33.5887 11.782 35.0757 9.67346 35.8911 7.31179C36.4605 5.66186 36.7624 4.17283 36.7416 2.98365C36.7215 1.83344 36.384 0.716139 35.3877 0.235093Z" fill="#6C51FC"/>
</svg>
