<svg width="19" height="18" viewBox="0 0 19 18" fill="none" xmlns="http://www.w3.org/2000/svg">
<path d="M1.16406 6.825C1.16406 4.82981 1.16406 3.83222 1.55235 3.07016C1.8939 2.39983 2.43889 1.85484 3.10922 1.51329C3.87128 1.125 4.86888 1.125 6.86406 1.125H11.2141C13.2092 1.125 14.2068 1.125 14.9689 1.51329C15.6392 1.85484 16.1842 2.39983 16.5258 3.07016C16.9141 3.83222 16.9141 4.82981 16.9141 6.825V11.175C16.9141 13.1702 16.9141 14.1678 16.5258 14.9298C16.1842 15.6002 15.6392 16.1452 14.9689 16.4867C14.2068 16.875 13.2093 16.875 11.2141 16.875H6.86406C4.86888 16.875 3.87128 16.875 3.10922 16.4867C2.43889 16.1452 1.8939 15.6002 1.55235 14.9298C1.16406 14.1678 1.16406 13.1702 1.16406 11.175V6.825Z" fill="#001E36"/>
<path d="M4.53906 12.6654V5.73942C4.53906 5.69231 4.55875 5.66538 4.60469 5.66538C5.28285 5.66538 5.96071 5.625 6.63906 5.625C7.73978 5.625 8.93162 6.00137 9.34938 7.15288C9.44781 7.43558 9.50031 7.725 9.50031 8.02789C9.50031 8.60673 9.36906 9.08462 9.10656 9.46154C8.37329 10.5144 7.10237 10.4981 5.96313 10.4981V12.6587C5.97203 12.7226 5.91752 12.7529 5.86469 12.7529H4.61781C4.56531 12.7529 4.53906 12.726 4.53906 12.6654ZM5.96969 6.96442V9.22596C6.4214 9.25906 6.8941 9.26265 7.32813 9.11827C7.80728 8.98005 8.06969 8.56527 8.06969 8.06827C8.08301 7.64476 7.85223 7.23841 7.45938 7.08558C7.03058 6.90728 6.43255 6.8966 5.96969 6.96442Z" fill="#31A8FF"/>
<path d="M13.5934 8.77915C13.3949 8.67451 13.1834 8.59795 12.9648 8.55158C12.6838 8.48547 11.5758 8.25396 11.5754 8.83333C11.5852 9.15678 12.0987 9.31525 12.3255 9.40766C13.122 9.68109 14.0232 10.1698 14.0055 11.1523C14.0298 12.3755 12.8448 12.8644 11.829 12.8645C11.3001 12.87 10.7492 12.7881 10.2652 12.5611C10.219 12.5366 10.1893 12.4843 10.1913 12.431V11.2607C10.1861 11.2138 10.2364 11.1728 10.2758 11.2065C10.75 11.4933 11.3121 11.6325 11.8607 11.64C12.1028 11.64 12.5828 11.6165 12.5791 11.2607C12.5791 10.9193 12.005 10.7623 11.7761 10.6755C11.4444 10.5571 11.1298 10.3931 10.8411 10.1879C10.4375 9.90006 10.1844 9.43857 10.1913 8.93085C10.1889 7.7792 11.2798 7.26227 12.2622 7.26203C12.7214 7.25824 13.2146 7.29225 13.6421 7.47876C13.7036 7.49686 13.7163 7.56161 13.7161 7.61963V8.71412C13.72 8.78206 13.6445 8.8052 13.5934 8.77915Z" fill="#31A8FF"/>
</svg>
