<svg width="14" height="18" viewBox="0 0 14 18" fill="none" xmlns="http://www.w3.org/2000/svg">
<path d="M11.4546 16.7146C11.344 17.5358 10.5403 18.1773 9.74167 17.9558C8.60369 17.6423 7.28609 17.1534 6.10053 17.0622C5.94422 17.0502 4.28348 16.9243 4.28348 16.9243C3.98971 16.9034 3.71398 16.775 3.50881 16.5638L0.377867 13.34C0.0357021 12.9877 -0.0569169 12.4623 0.144142 12.0143C0.144142 12.0143 2.08015 7.75998 2.15205 7.53873C2.22395 7.31749 2.48784 5.38789 2.64421 4.35129C2.68566 4.07658 2.82129 3.82476 3.02787 3.63896L6.73167 0.307555C7.24698 -0.155911 8.04683 -0.0872298 8.47551 0.457292L11.5869 4.40925C11.7629 4.63293 11.8532 4.91089 11.8545 5.19548C11.858 5.94422 11.9198 7.48143 12.3338 8.47152C12.7366 9.43458 13.4757 10.4747 13.8621 10.9865C14.0103 11.1829 14.033 11.4485 13.9078 11.6604C13.6351 12.1219 13.0965 13.0081 12.3338 14.1452C11.8081 14.9292 11.5644 15.8983 11.4546 16.7146Z" fill="#6C31E3"/>
<path d="M3.84624 16.8075C5.30024 13.8556 5.25968 11.7409 4.64097 10.2317C4.07156 8.84287 3.01251 7.96687 2.17776 7.42322C2.16018 7.50175 2.13469 7.57843 2.10168 7.65204L0.144142 12.0143C-0.0569169 12.4623 0.0357021 12.9877 0.377867 13.34L3.50881 16.5638C3.60704 16.6649 3.72144 16.7471 3.84624 16.8075Z" fill="url(#paint0_radial_761_5879)"/>
<path d="M9.74188 17.9554C10.5404 18.1769 11.3439 17.5353 11.4545 16.7141C11.5497 16.0071 11.7451 15.1854 12.1374 14.4687C11.2374 12.5315 10.1491 11.5269 8.95612 11.0817C7.69327 10.6103 6.31306 10.7657 4.91462 11.1053C5.22725 12.528 5.04011 14.3861 3.84766 16.8072C3.98345 16.8729 4.1315 16.913 4.28448 16.9239C4.28448 16.9239 5.14495 16.9963 6.16827 17.0688C7.19159 17.1412 8.71441 17.6704 9.74188 17.9554Z" fill="url(#paint1_radial_761_5879)"/>
<path d="M7.80349 10.8161C8.1964 10.8572 8.58149 10.9419 8.9563 11.0817C10.1496 11.527 11.2381 12.5316 12.1382 14.4687C12.1987 14.3581 12.2639 14.25 12.3343 14.1452C13.0968 13.0081 13.6355 12.1219 13.9082 11.6604C14.0334 11.4485 14.0107 11.1829 13.8624 10.9865C13.4761 10.4747 12.737 9.43459 12.3343 8.47152C11.9202 7.48144 11.8584 5.94423 11.8549 5.19549C11.8535 4.9109 11.7633 4.63294 11.5873 4.40926L8.47589 0.457295C8.45928 0.436162 8.44206 0.415752 8.42435 0.396057C8.65264 1.14422 8.63717 1.74608 8.49633 2.2932C8.36577 2.8004 8.12741 3.26058 7.87564 3.74664L7.8756 3.74671C7.79114 3.90973 7.70522 4.07567 7.62129 4.2473C7.28726 4.93058 6.98566 5.7038 6.94119 6.74065C6.89667 7.77754 7.10924 9.07806 7.80357 10.8161L7.80349 10.8161Z" fill="url(#paint2_radial_761_5879)"/>
<path d="M7.80267 10.8161C7.10838 9.07809 6.89573 7.77753 6.94024 6.7406C6.98476 5.70366 7.28636 4.93044 7.62043 4.24713C7.70437 4.07546 7.79032 3.90952 7.87479 3.74647C8.12651 3.26039 8.36487 2.80026 8.49543 2.2931C8.63627 1.74585 8.65174 1.14383 8.42322 0.395353C7.9843 -0.0918028 7.22659 -0.137713 6.73155 0.307554L3.02774 3.63896C2.82116 3.82476 2.68553 4.07658 2.64408 4.35129L2.1932 7.34014C2.18902 7.36787 2.18385 7.39543 2.17773 7.42281C3.01252 7.96645 4.07174 8.84255 4.6412 10.2315C4.75243 10.5028 4.84498 10.7936 4.91353 11.1054C5.89703 10.8666 6.87156 10.7189 7.80267 10.8161Z" fill="url(#paint3_radial_761_5879)"/>
<path fill-rule="evenodd" clip-rule="evenodd" d="M6.94768 6.6725C6.90303 7.70108 7.03143 8.88101 7.72427 10.6154L7.50671 10.5958C6.88511 8.78588 6.74983 7.85792 6.7951 6.81509C6.84041 5.77179 7.1775 4.96951 7.51346 4.28517C7.59854 4.11185 7.79708 3.78638 7.88202 3.62301C8.13356 3.13931 8.30098 2.88379 8.44472 2.44167C8.6456 1.8239 8.60213 1.5313 8.57924 1.24011C8.73872 2.29274 8.13337 3.20805 7.67572 4.14029C7.34235 4.81941 6.99228 5.64439 6.94768 6.6725Z" fill="url(#paint4_radial_761_5879)"/>
<path fill-rule="evenodd" clip-rule="evenodd" d="M4.84604 10.3083C4.92822 10.4983 5.00584 10.6518 5.05484 10.8869L4.87328 10.9277C4.79775 10.6532 4.73937 10.4579 4.63483 10.2224C4.00919 8.74635 3.00512 7.98711 2.18457 7.43024C3.17569 7.96345 4.19295 8.79806 4.84604 10.3083Z" fill="url(#paint5_radial_761_5879)"/>
<path fill-rule="evenodd" clip-rule="evenodd" d="M5.06556 11.0726C5.41225 12.6859 5.02549 14.7355 3.88574 16.7278C4.83841 14.7533 5.30024 12.8569 4.91561 11.1048L5.06556 11.0726Z" fill="url(#paint6_radial_761_5879)"/>
<path fill-rule="evenodd" clip-rule="evenodd" d="M8.99915 10.9275C10.8678 11.6268 11.5874 13.1623 12.1252 14.4431C11.461 13.1019 10.5375 11.6207 8.9321 11.0709C7.71056 10.6525 6.67892 10.7021 4.91528 11.1024L4.87598 10.9275C6.7477 10.501 7.72632 10.4512 8.99915 10.9275Z" fill="url(#paint7_radial_761_5879)"/>
<defs>
<radialGradient id="paint0_radial_761_5879" cx="0" cy="0" r="1" gradientUnits="userSpaceOnUse" gradientTransform="translate(3.68986 16.5161) rotate(-104.574) scale(8.19016 5.45791)">
<stop stop-color="white" stop-opacity="0.4"/>
<stop offset="1" stop-opacity="0.1"/>
</radialGradient>
<radialGradient id="paint1_radial_761_5879" cx="0" cy="0" r="1" gradientUnits="userSpaceOnUse" gradientTransform="translate(9.8012 17.9996) rotate(-120.563) scale(6.65511 7.64142)">
<stop stop-color="white" stop-opacity="0.3"/>
<stop offset="1" stop-opacity="0.25"/>
</radialGradient>
<radialGradient id="paint2_radial_761_5879" cx="0" cy="0" r="1" gradientUnits="userSpaceOnUse" gradientTransform="translate(10.6707 13.1485) rotate(-82.4846) scale(13.4397 9.92932)">
<stop stop-color="white" stop-opacity="0.55"/>
<stop offset="1" stop-color="white" stop-opacity="0.05"/>
</radialGradient>
<radialGradient id="paint3_radial_761_5879" cx="0" cy="0" r="1" gradientUnits="userSpaceOnUse" gradientTransform="translate(4.18061 10.7889) rotate(-77.7214) scale(11.4768 7.82688)">
<stop stop-color="white" stop-opacity="0.83"/>
<stop offset="1" stop-color="white" stop-opacity="0.4"/>
</radialGradient>
<radialGradient id="paint4_radial_761_5879" cx="0" cy="0" r="1" gradientUnits="userSpaceOnUse" gradientTransform="translate(8.91264 4.50019) rotate(102.236) scale(5.9716 4.02688)">
<stop stop-color="white" stop-opacity="0"/>
<stop offset="1" stop-color="white" stop-opacity="0.17"/>
</radialGradient>
<radialGradient id="paint5_radial_761_5879" cx="0" cy="0" r="1" gradientUnits="userSpaceOnUse" gradientTransform="translate(1.91657 7.73456) rotate(45.3237) scale(4.40016 9.37192)">
<stop stop-color="white" stop-opacity="0.2"/>
<stop offset="1" stop-color="white" stop-opacity="0.44"/>
</radialGradient>
<radialGradient id="paint6_radial_761_5879" cx="0" cy="0" r="1" gradientUnits="userSpaceOnUse" gradientTransform="translate(5.23873 9.81667) rotate(80.2016) scale(5.15727 10.9517)">
<stop stop-color="white" stop-opacity="0.25"/>
<stop offset="1" stop-color="white" stop-opacity="0.3"/>
</radialGradient>
<radialGradient id="paint7_radial_761_5879" cx="0" cy="0" r="1" gradientUnits="userSpaceOnUse" gradientTransform="translate(12.0768 14.0275) rotate(-152.297) scale(7.85842 24.7299)">
<stop stop-color="white" stop-opacity="0.21"/>
<stop offset="0.46738" stop-color="white" stop-opacity="0.19"/>
<stop offset="1" stop-color="white" stop-opacity="0.29"/>
</radialGradient>
</defs>
</svg>
