<svg width="19" height="18" viewBox="0 0 19 18" fill="none" xmlns="http://www.w3.org/2000/svg">
<path d="M0.938477 4.5C0.938477 2.01472 2.93945 0 5.40777 0H14.3464C16.8147 0 18.8157 2.01472 18.8157 4.5V13.5C18.8157 15.9853 16.8147 18 14.3464 18H5.40777C2.93945 18 0.938477 15.9853 0.938477 13.5V4.5Z" fill="#1868DB"/>
<mask id="mask0_761_5900" style="mask-type:luminance" maskUnits="userSpaceOnUse" x="4" y="3" width="12" height="13">
<path d="M15.2524 3.89648H4.00684V15.307H15.2524V3.89648Z" fill="white"/>
</mask>
<g mask="url(#mask0_761_5900)">
<path d="M7.62322 11.6425H6.61592C5.09669 11.6425 4.00684 10.7055 4.00684 9.33361H9.42319C9.7039 9.33361 9.88554 9.53435 9.88554 9.81878V15.3066C8.53146 15.3066 7.62322 14.2023 7.62322 12.663V11.6425ZM10.2984 8.91533H9.29109C7.77186 8.91533 6.68199 7.99512 6.68199 6.62318H12.0983C12.379 6.62318 12.5772 6.8072 12.5772 7.09163V12.5794C11.2231 12.5794 10.2984 11.4752 10.2984 9.9359V8.91533ZM12.99 6.20491H11.9827C10.4635 6.20491 9.37362 5.26797 9.37362 3.896H14.79C15.0707 3.896 15.2523 4.09677 15.2523 4.36448V9.85227C13.8983 9.85227 12.99 8.74801 12.99 7.20875V6.20491Z" fill="white"/>
</g>
</svg>
