<svg width="18" height="18" viewBox="0 0 18 18" fill="none" xmlns="http://www.w3.org/2000/svg">
<path d="M0.0390625 4.5C0.0390625 2.01487 2.04269 0 4.51395 0H13.4637C15.935 0 17.9386 2.01487 17.9386 4.5V13.5C17.9386 15.9851 15.935 18 13.4637 18H4.51395C2.04269 18 0.0390625 15.9851 0.0390625 13.5V4.5Z" fill="#FFDD33"/>
<path fill-rule="evenodd" clip-rule="evenodd" d="M11.9386 3.43115L14.9178 5.2919L11.9386 14.5968H10.3142L11.6679 6.09009L8.68928 14.5968H7.06434L8.55392 6.62165L5.4394 14.5968H3.81445L5.4394 7.15321L3.81445 3.43115H5.4394L8.55392 6.35559L7.06434 3.43115H8.68928L11.6679 5.82346L10.3142 3.43115H11.9386Z" fill="#1C1C1E"/>
</svg>
