<svg width="111" height="111" viewBox="0 0 111 111" fill="none" xmlns="http://www.w3.org/2000/svg">
<path d="M61.2949 18.749C65.9052 17.8277 70.928 19.4238 73.5459 24.0332L73.792 24.4883L73.7939 24.4922C74.4599 25.7627 74.8958 27.4691 75.1689 29.4395C75.4412 31.4038 75.5472 33.5966 75.5752 35.8203C75.6032 38.0437 75.5526 40.285 75.5127 42.3506C75.4729 44.4092 75.4441 46.302 75.5176 47.8047L75.5352 48.1777L75.8984 48.2666C79.103 49.046 81.198 48.6507 82.5098 47.3652C83.7834 46.1169 84.1716 44.1557 84.3184 42.1885C84.3927 41.1911 84.4064 40.1518 84.4248 39.1543C84.4433 38.1492 84.4657 37.187 84.5547 36.3125C84.7323 34.567 85.1569 33.393 86.0781 32.8828L86.1689 32.8379C87.3032 32.2756 88.2294 32.1068 88.9785 32.1973C89.7181 32.2866 90.3339 32.635 90.8496 33.2041C91.9072 34.3712 92.5229 36.4506 92.7256 38.9443C92.9263 41.4146 92.7143 44.1937 92.207 46.6602C91.6963 49.1432 90.9012 51.2368 89.9854 52.3887C87.6838 55.2811 84.3864 56.3614 81.5322 56.7754C80.1084 56.9819 78.8113 57.0208 77.8203 57.041C77.3318 57.051 76.8995 57.057 76.5762 57.0781C76.4148 57.0887 76.2608 57.1034 76.1299 57.1299C76.0272 57.1507 75.8284 57.1973 75.6797 57.3408H75.6787C75.5776 57.4387 75.5291 57.5566 75.5049 57.623C75.4765 57.701 75.456 57.785 75.4404 57.8662C75.4091 58.0297 75.3876 58.2331 75.3721 58.4609C75.3408 58.9196 75.3303 59.5332 75.334 60.2461C75.3414 61.6744 75.4039 63.5453 75.4707 65.4639C75.5377 67.3866 75.6088 69.36 75.6348 71.0049C75.656 72.3471 75.6438 73.4284 75.585 74.0859C71.6106 74.1514 67.6214 74.1271 63.626 74.0957C59.6566 74.0645 55.6804 74.0285 51.7168 74.0742V63.9531L51.0566 64.1768C47.7154 65.3063 44.8289 64.4609 42.5078 62.5352C40.1674 60.5933 38.4033 57.5482 37.4092 54.3281C36.4141 51.1047 36.2133 47.7797 36.918 45.3047C37.269 44.0718 37.8367 43.0763 38.6143 42.3965C39.3841 41.7235 40.3924 41.3311 41.6895 41.3506C42.6043 41.3642 43.2738 41.6083 43.7822 41.9932C44.2961 42.3822 44.6831 42.9435 44.9785 43.6504C45.5791 45.0876 45.7541 46.9919 45.9365 48.918C46.0262 49.8643 46.1179 50.8123 46.2705 51.6709C46.4225 52.526 46.6415 53.3327 47.0029 53.9854C47.3707 54.6494 47.8991 55.1743 48.6621 55.4092C49.4105 55.6395 50.3094 55.5677 51.3779 55.2041L51.6904 55.0977L51.7158 54.7686C52.0335 50.5928 51.8184 46.1395 51.6338 41.749C51.4486 37.3441 51.2933 33.0002 51.7139 28.9824C52.3073 23.3164 56.5367 19.7 61.2949 18.749Z" fill="url(#paint0_linear_840_5424)" stroke="#84C33A"/>
<path d="M75 78C76.6569 78 78 79.3431 78 81V93C78 94.6569 76.6569 96 75 96H70V104H77C78.6569 104 80 105.343 80 107C80 108.657 78.6569 110 77 110H51C49.3431 110 48 108.657 48 107C48 105.343 49.3431 104 51 104H58V96H53C51.3431 96 50 94.6569 50 93V81C50 79.3431 51.3431 78 53 78H75Z" fill="#464C51"/>
<path d="M70 104H58V96H70V104Z" fill="url(#paint1_linear_840_5424)"/>
<path d="M63 11H38C31.3726 11 26 16.3726 26 23V73C26 79.6274 31.3726 85 38 85H73V93H38C26.9543 93 18 84.0457 18 73V23C18 11.9543 26.9543 3 38 3H63C63 3 66 3 66 7C66 11 63 11 63 11Z" fill="#393F42"/>
<rect x="14" y="31" width="16" height="40" rx="3" fill="#464C51"/>
<path d="M75 78C76.6569 78 78 79.3431 78 81V93C78 94.6569 76.6569 96 75 96H53C51.3431 96 50 94.6569 50 93V81C50 79.3431 51.3431 78 53 78H75Z" fill="#4D5359"/>
<path d="M77 104C78.6569 104 80 105.343 80 107C80 108.657 78.6569 110 77 110H51C49.3431 110 48 108.657 48 107C48 105.343 49.3431 104 51 104H77Z" fill="#4D5359"/>
<defs>
<linearGradient id="paint0_linear_840_5424" x1="64.6504" y1="18" x2="64.6504" y2="74.6283" gradientUnits="userSpaceOnUse">
<stop stop-color="#7FC22F"/>
<stop offset="1" stop-color="#88CF33"/>
</linearGradient>
<linearGradient id="paint1_linear_840_5424" x1="64" y1="96" x2="64" y2="104" gradientUnits="userSpaceOnUse">
<stop offset="0.182054" stop-color="#3C4145"/>
<stop offset="0.451923" stop-color="#42484C"/>
<stop offset="0.596154" stop-color="#42474B"/>
<stop offset="0.89828" stop-color="#3C4145"/>
</linearGradient>
</defs>
</svg>
