<svg width="25" height="32" viewBox="0 0 25 32" fill="none" xmlns="http://www.w3.org/2000/svg">
<path d="M24.9875 24.4496C24.0288 29.2319 18.2423 30.7132 14.7574 27.3664C14.7368 27.3461 14.7179 27.3258 14.7008 27.3038L14.3543 26.8653C14.0216 26.4438 13.3373 26.6757 13.3373 27.2107V31.5867C13.3373 32.1386 11.6223 32.1386 11.6223 31.5867V27.3681C11.6223 26.8518 10.9826 26.6148 10.6293 26.994C8.98285 28.758 6.84764 29.6772 4.20992 29.0864C-0.480686 28.0368 -1.67777 21.3246 2.81218 19.3355C7.09804 17.4378 9.9124 22.921 6.70529 24.8712C5.74316 25.4569 3.06257 25.6194 3.24093 24.0044C3.59766 22.7517 5.9301 24.6122 6.44118 22.9193C7.21809 20.3394 3.0437 19.4117 1.88091 22.3099C-0.0330613 27.082 6.6607 29.9666 9.9124 25.1573C10.535 24.238 11.624 21.6293 11.624 20.5832L11.624 15.4741C11.624 15.1643 11.3685 14.9121 11.0546 14.9121H6.00213C5.58538 14.9121 5.30926 14.4838 5.48762 14.1114L12.0425 0.323097C12.2483 -0.110273 12.8725 -0.106887 13.0749 0.328176L19.484 14.1165C19.6572 14.4889 19.3811 14.9121 18.966 14.9121L13.9119 14.9121C13.5946 14.9121 13.339 15.1677 13.3425 15.4809C13.3596 16.6168 13.4008 19.1713 13.4608 20.5087C13.5397 22.2625 14.3955 24.7036 15.8996 26.1764C19.6383 29.8397 25.4437 25.66 22.7391 21.626C21.2968 19.4743 17.9593 20.336 18.5184 22.7466C18.8494 24.1737 20.2335 23.4881 21.0121 23.4068C21.235 23.3831 21.4494 23.4915 21.5643 23.6811C22.0411 24.4666 21.3036 25.054 20.4118 25.1962C16.5873 25.8005 15.5771 20.5865 18.9283 19.1612C21.0412 18.2623 23.029 19.3457 24.2381 21.0572C24.2672 21.0978 24.2895 21.1418 24.3067 21.1892L24.8092 22.5367C24.9326 22.8668 24.9961 23.2172 24.9961 23.5694V24.3328C24.9961 24.3718 24.9927 24.4107 24.9841 24.4479L24.9875 24.4496ZM8.27969 12.8807L16.7965 12.8807L12.4541 3.92718L8.27969 12.8807Z" fill="#E2E2E2"/>
</svg>
