<svg width="29" height="29" viewBox="0 0 29 29" fill="none" xmlns="http://www.w3.org/2000/svg">
<path d="M25.799 1.08637C30.0064 -1.5844 29.1818 2.05271 28.2364 4.22252L16.7396 14.2253L28.2596 24.6513V24.6049C29.3413 27.1597 27.402 27.9062 26.2371 27.9691L14.2909 17.6074L2.26484 28.0379C2.24762 28.0431 2.23033 28.0483 2.21296 28.0536C0.212333 28.6586 0.0498594 26.0974 0.219244 24.7372L11.6894 14.3562C11.6896 14.3522 11.6899 14.3482 11.6901 14.3442L0.262708 4.40269C0.261592 4.39986 0.261023 4.39655 0.259904 4.39372C-0.697904 1.96967 1.21927 1.07904 2.32092 0.930867L14.1472 11.4219L25.799 1.08637Z" fill="white"/>
</svg>
