<svg width="489" height="552" viewBox="0 0 489 552" fill="none" xmlns="http://www.w3.org/2000/svg">
<path d="M241.713 259.519C273.053 259.519 292.68 277.219 292.438 310.732C292.438 349.26 270.901 367.437 237.885 367.206C233.337 367.206 228.31 367.206 225.194 366.477V260.954C228.316 260.236 233.568 259.519 241.713 259.519Z" fill="#424242"/>
<path d="M100.746 259.041C118.921 259.041 129.22 267.893 129.22 282.725C129.22 299.24 117.258 309.049 97.8672 309.049C92.6172 309.049 88.7888 308.807 85.6748 308.1V260.473C88.3088 259.756 93.3322 259.041 100.746 259.041Z" fill="#424242"/>
<path fill-rule="evenodd" clip-rule="evenodd" d="M327.032 0.5C327.876 0.500043 328.709 0.618645 329.511 0.808594C329.711 0.860594 329.891 0.943023 330.091 0.999023C330.829 1.21999 331.546 1.5256 332.222 1.89453C332.464 2.02853 332.697 2.15945 332.928 2.31445C333.708 2.82343 334.446 3.41122 335.079 4.11816C335.101 4.15195 335.132 4.16342 335.164 4.19434L441.36 125.506C443.095 127.478 443.902 129.967 443.923 132.501C443.976 132.904 444.039 133.305 444.039 133.703V197.519H457.265C474.309 197.519 488.136 211.338 488.137 228.392V388.932C488.137 405.975 474.31 419.802 457.266 419.802H444.04V529.7C444.04 541.608 434.346 551.301 422.439 551.301H66.04C54.1221 551.301 44.4396 541.607 44.4395 529.7V419.802H31.2158C14.1668 419.802 0.342773 405.975 0.342773 388.932V228.387C0.342922 211.332 14.1669 197.514 31.2158 197.514H44.4385V22.1006C44.4387 10.1928 54.1212 0.5 66.0391 0.5H327.032ZM66.0391 419.802V529.7H422.438V419.802H66.0391ZM237.885 231.519C219.459 231.519 201.98 232.716 188.581 234.865V393.281C197.685 394.473 211.082 395.67 229.981 395.67C261.557 395.67 287.407 388.973 304.378 374.856C319.955 361.689 331.198 340.399 331.198 309.523C331.198 281.047 320.667 261.19 303.924 248.745C288.363 237.027 268.497 231.519 237.885 231.519ZM98.835 231.519C76.5811 231.519 60.78 232.961 49.5391 234.865V394.003H85.6699V336.333C89.0048 336.813 93.3267 337.056 98.1045 337.056C119.646 337.056 138.07 331.788 150.512 320.06C160.091 310.973 165.341 297.574 165.341 281.775C165.341 265.982 158.418 252.578 148.126 244.447C137.362 235.827 121.326 231.519 98.835 231.519ZM355.155 232.716V394H391.748V329.152H449.661V299.478H391.748V262.627H453.736V232.716H355.155ZM66.0391 22.1055V197.526H422.438V143.418H327.032C321.073 143.418 316.232 138.585 316.231 132.618V22.1055H66.0391Z" fill="#424242"/>
</svg>
