<svg width="33" height="32" viewBox="0 0 33 32" xmlns="http://www.w3.org/2000/svg">
<path d="M28.9659 1.18728C33.6085 -1.76964 32.6987 2.25716 31.6555 4.65945L18.9693 15.734L31.681 27.277V27.2257C32.8747 30.0542 30.7347 30.8806 29.4493 30.9503L16.2673 19.4785L2.99718 31.0264C2.97818 31.0322 2.9591 31.038 2.93993 31.0438C0.732345 31.7137 0.553064 28.8781 0.739972 27.3722L13.3967 15.8788C13.3969 15.8744 13.3973 15.87 13.3975 15.8656L0.787931 4.85892C0.7867 4.85579 0.786072 4.85213 0.784837 4.84899C-0.272054 2.16522 1.84345 1.17917 3.05906 1.01512L16.1088 12.6301L28.9659 1.18728Z"/>
</svg>
