<svg width="32" height="25" viewBox="0 0 32 25" fill="none" xmlns="http://www.w3.org/2000/svg">
<g clip-path="url(#clip0_630_5397)">
<path d="M7.55033 0.0119931C2.76802 0.970695 1.28677 6.75721 4.63354 10.2422C4.65385 10.2627 4.67417 10.2816 4.69618 10.2987L5.13463 10.6452C5.55615 10.9779 5.32422 11.6622 4.78928 11.6622H0.413258C-0.138612 11.6622 -0.138612 13.3772 0.413258 13.3772H4.63185C5.14817 13.3772 5.38517 14.0169 5.00597 14.3702C3.24201 16.0167 2.32279 18.1519 2.9136 20.7896C3.96317 25.4802 10.6753 26.6773 12.6644 22.1873C14.5621 17.9015 9.07897 15.0871 7.12881 18.2942C6.54308 19.2564 6.38056 21.9369 7.99555 21.7586C9.24826 21.4019 7.38781 19.0694 9.08067 18.5583C11.6606 17.7814 12.5883 21.9558 9.69009 23.1186C4.91794 25.0326 2.03332 18.3388 6.84271 15.0871C7.76193 14.4646 10.3706 13.3755 11.4168 13.3755H16.5258C16.8356 13.3755 17.0879 13.6311 17.0879 13.9449V18.9974C17.0879 19.4141 17.5162 19.6903 17.8886 19.5119L31.6769 12.957C32.1102 12.7512 32.1069 12.127 31.6718 11.9246L17.8835 5.51553C17.5111 5.34231 17.0879 5.61843 17.0879 6.03347V11.0877C17.0879 11.4049 16.8322 11.6605 16.5191 11.6571C15.3832 11.6399 12.8286 11.5987 11.4913 11.5387C9.73749 11.4598 7.2964 10.604 5.82362 9.09994C2.16028 5.36117 6.33994 -0.444205 10.374 2.2604C12.5256 3.70274 11.664 7.04019 9.25334 6.48109C7.82626 6.15009 8.51187 4.76606 8.59312 3.98743C8.61682 3.76448 8.50848 3.5501 8.31888 3.43519C7.5334 2.95842 6.94598 3.69588 6.80378 4.58769C6.19943 8.41221 11.4134 9.42237 12.8388 6.0712C13.7377 3.95828 12.6543 1.97056 10.9428 0.761461C10.9022 0.732306 10.8582 0.710011 10.8108 0.69286L9.46325 0.190356C9.13314 0.0668741 8.78272 0.00341797 8.43061 0.00341797H7.66713C7.6282 0.00341797 7.58926 0.00684803 7.55202 0.0154232L7.55033 0.0119931ZM19.1193 16.7198V8.20298L28.0728 12.5454L19.1193 16.7198Z" fill="white"/>
</g>
<defs>
<clipPath id="clip0_630_5397">
<rect width="32" height="25" fill="white" transform="matrix(-1 0 0 1 32 0)"/>
</clipPath>
</defs>
</svg>
