<svg width="32" height="25" viewBox="0 0 32 25" fill="none" xmlns="http://www.w3.org/2000/svg">
<g clip-path="url(#clip0_630_5397)">
<path d="M24.4497 0.0119931C29.232 0.970695 30.7132 6.75721 27.3665 10.2422C27.3461 10.2627 27.3258 10.2816 27.3038 10.2987L26.8654 10.6452C26.4439 10.9779 26.6758 11.6622 27.2107 11.6622H31.5867C32.1386 11.6622 32.1386 13.3772 31.5867 13.3772H27.3682C26.8518 13.3772 26.6148 14.0169 26.994 14.3702C28.758 16.0167 29.6772 18.1519 29.0864 20.7896C28.0368 25.4802 21.3247 26.6773 19.3356 22.1873C17.4379 17.9015 22.921 15.0871 24.8712 18.2942C25.4569 19.2564 25.6194 21.9369 24.0045 21.7586C22.7517 21.4019 24.6122 19.0694 22.9193 18.5583C20.3394 17.7814 19.4117 21.9558 22.3099 23.1186C27.0821 25.0326 29.9667 18.3388 25.1573 15.0871C24.2381 14.4646 21.6294 13.3755 20.5832 13.3755H15.4742C15.1644 13.3755 14.9121 13.6311 14.9121 13.9449V18.9974C14.9121 19.4141 14.4838 19.6903 14.1114 19.5119L0.323131 12.957C-0.110239 12.7512 -0.106854 12.127 0.32821 11.9246L14.1165 5.51553C14.4889 5.34231 14.9121 5.61843 14.9121 6.03347V11.0877C14.9121 11.4049 15.1678 11.6605 15.4809 11.6571C16.6168 11.6399 19.1714 11.5987 20.5087 11.5387C22.2625 11.4598 24.7036 10.604 26.1764 9.09994C29.8397 5.36117 25.6601 -0.444205 21.626 2.2604C19.4744 3.70274 20.336 7.04019 22.7467 6.48109C24.1737 6.15009 23.4881 4.76606 23.4069 3.98743C23.3832 3.76448 23.4915 3.5501 23.6811 3.43519C24.4666 2.95842 25.054 3.69588 25.1962 4.58769C25.8006 8.41221 20.5866 9.42237 19.1612 6.0712C18.2623 3.95828 19.3457 1.97056 21.0572 0.761461C21.0978 0.732306 21.1418 0.710011 21.1892 0.69286L22.5368 0.190356C22.8669 0.0668741 23.2173 0.00341797 23.5694 0.00341797H24.3329C24.3718 0.00341797 24.4107 0.00684803 24.448 0.0154232L24.4497 0.0119931ZM12.8807 16.7198V8.20298L3.92722 12.5454L12.8807 16.7198Z" fill="white"/>
</g>
<defs>
<clipPath id="clip0_630_5397">
<rect width="32" height="25" fill="white"/>
</clipPath>
</defs>
</svg>
