<svg width="245" height="25" viewBox="0 0 245 25" fill="none" xmlns="http://www.w3.org/2000/svg">
<g opacity="0.9">
<path fill-rule="evenodd" clip-rule="evenodd" d="M64.0889 21.0225C64.0889 21.4495 64.1462 21.7412 64.2607 21.8975C64.3858 22.0537 64.6775 22.1944 65.1357 22.3193L66.2295 22.6162V23.5225L60.7451 24.1787V21.5381C60.3285 22.3713 59.6459 23.0485 58.6982 23.5693C57.7505 24.0797 56.6981 24.3349 55.542 24.335C54.4067 24.335 53.3544 24.0224 52.3857 23.3975C51.417 22.7725 50.6357 21.8714 50.042 20.6943C49.4482 19.5068 49.1514 18.0797 49.1514 16.4131C49.1514 14.7569 49.4795 13.3089 50.1357 12.0693C50.8024 10.8299 51.6932 9.86614 52.8076 9.17871C53.9221 8.49139 55.1672 8.14746 56.542 8.14746C57.4376 8.14752 58.2452 8.30897 58.9639 8.63184C59.6825 8.95473 60.2556 9.36628 60.6826 9.86621V3.94434C60.6826 3.51745 60.6201 3.22557 60.4951 3.06934C60.3806 2.90271 60.1043 2.75681 59.667 2.63184L58.542 2.35059V1.44434L64.0889 0.772461V21.0225ZM57.3545 9.64746C56.438 9.64746 55.6304 9.90809 54.9326 10.4287C54.2348 10.9495 53.6878 11.6945 53.292 12.6631C52.8962 13.6214 52.6983 14.7622 52.6982 16.085C52.6982 17.3974 52.8858 18.5277 53.2607 19.4756C53.6357 20.4235 54.1618 21.1527 54.8389 21.6631C55.5263 22.163 56.3233 22.4131 57.2295 22.4131C58.021 22.413 58.714 22.2568 59.3076 21.9443C59.9011 21.6318 60.3598 21.1838 60.6826 20.6006V11.2881C60.4327 10.8298 60.0106 10.4443 59.417 10.1318C58.8234 9.80898 58.1356 9.64752 57.3545 9.64746Z" fill="currentColor"/>
<path d="M190.81 20.9824C190.81 21.4093 190.867 21.7012 190.981 21.8574C191.106 22.0136 191.393 22.1543 191.841 22.2793L192.95 22.5762V23.4824L187.45 24.1387V21.623C187.013 22.3832 186.356 23.019 185.481 23.5293C184.617 24.0395 183.58 24.2949 182.372 24.2949C180.82 24.2948 179.554 23.8626 178.575 22.998C177.596 22.1231 177.107 20.8676 177.106 19.2324V11.4199C177.106 10.9929 177.044 10.7012 176.919 10.5449C176.804 10.3783 176.528 10.2376 176.091 10.123L174.966 9.82617V8.91992L180.513 8.26367V18.4824C180.513 19.7634 180.82 20.7325 181.435 21.3887C182.059 22.0448 182.935 22.373 184.06 22.373C184.851 22.373 185.534 22.2062 186.106 21.873C186.679 21.5398 187.112 21.1332 187.403 20.6543V11.4199C187.403 10.9929 187.346 10.7012 187.231 10.5449C187.117 10.3783 186.836 10.2376 186.388 10.123L185.263 9.82617V8.91992L190.81 8.26367V20.9824Z" fill="currentColor"/>
<path fill-rule="evenodd" clip-rule="evenodd" d="M40.1943 7.75C42.0171 7.75005 43.4652 8.15109 44.5381 8.95312C45.6108 9.7448 46.1475 10.9897 46.1475 12.6875V20.4062C46.1475 21.0937 46.3089 21.5834 46.6318 21.875C46.9651 22.1665 47.3663 22.3125 47.835 22.3125C48.1577 22.3125 48.4288 22.2656 48.6475 22.1719V23.125C48.3767 23.302 48.0171 23.4636 47.5693 23.6094C47.1215 23.7656 46.6161 23.8437 46.0537 23.8438C45.5122 23.8438 45.0276 23.7603 44.6006 23.5938C44.1736 23.4167 43.8141 23.1613 43.5225 22.8281C43.2308 22.4948 43.0329 22.0884 42.9287 21.6094C42.6371 22.026 42.2411 22.4167 41.7412 22.7812C41.2413 23.1354 40.6578 23.4167 39.9912 23.625C39.3246 23.8333 38.6005 23.9375 37.8193 23.9375C36.4966 23.9375 35.4026 23.5728 34.5381 22.8438C33.6735 22.1146 33.2413 21.177 33.2412 20.0312C33.2412 19.1979 33.4443 18.474 33.8506 17.8594C34.2673 17.2448 34.9183 16.7135 35.8037 16.2656C36.6995 15.8178 37.8663 15.4427 39.3037 15.1406L42.8193 14.3779V13.0312C42.8193 11.6148 42.4702 10.625 41.7725 10.0625C41.0746 9.48964 40.1577 9.20318 39.0225 9.20312C38.3351 9.20312 37.6995 9.30214 37.1162 9.5C36.8495 9.58573 36.6025 9.69072 36.375 9.81348C36.5702 9.8994 36.7498 10.0293 36.9131 10.2031C37.2462 10.5364 37.4131 10.948 37.4131 11.4375C37.413 11.927 37.2359 12.3386 36.8818 12.6719C36.5278 12.9947 36.0952 13.1562 35.585 13.1562C35.0747 13.1562 34.637 12.9946 34.2725 12.6719C33.9183 12.3386 33.7413 11.9114 33.7412 11.3906C33.7412 10.6823 34.0277 10.0573 34.6006 9.51562C35.1735 8.974 35.9496 8.54686 36.9287 8.23438C37.9078 7.91152 38.9965 7.75 40.1943 7.75ZM40.7881 16.0312C39.7778 16.2604 38.9704 16.5313 38.3662 16.8438C37.7621 17.1458 37.3245 17.5104 37.0537 17.9375C36.7933 18.3646 36.6631 18.8646 36.6631 19.4375C36.6631 20.302 36.934 20.974 37.4756 21.4531C38.0276 21.9321 38.7257 22.1719 39.5693 22.1719C40.2775 22.1718 40.9132 22.0364 41.4756 21.7656C42.0484 21.4844 42.4965 21.0937 42.8193 20.5938V15.5938L40.7881 16.0312Z" fill="currentColor"/>
<path fill-rule="evenodd" clip-rule="evenodd" d="M219.598 7.74121C221.159 7.74121 222.542 8.08453 223.746 8.77051C224.95 9.45663 225.889 10.4142 226.562 11.6426C227.245 12.8597 227.586 14.2651 227.586 15.8584C227.586 17.4077 227.239 18.7915 226.545 20.0088C225.862 21.2261 224.912 22.1837 223.697 22.8809C222.483 23.5778 221.073 23.9258 219.468 23.9258C217.906 23.9258 216.523 23.5834 215.319 22.8975C214.126 22.2003 213.188 21.2426 212.505 20.0254C211.822 18.8081 211.479 17.4077 211.479 15.8252C211.48 14.2539 211.822 12.8653 212.505 11.6592C213.199 10.4419 214.153 9.4843 215.368 8.78711C216.583 8.09005 217.993 7.74124 219.598 7.74121ZM220.899 9.48438C220.14 9.05283 219.3 8.9034 218.378 9.03613C217.478 9.16892 216.746 9.54539 216.182 10.165C215.618 10.7848 215.238 11.6261 215.043 12.6885C214.859 13.7507 214.88 15.0066 215.107 16.4561C215.335 17.9057 215.715 19.1124 216.246 20.0752C216.778 21.038 217.423 21.7354 218.183 22.167C218.942 22.5984 219.777 22.7479 220.688 22.6152C221.588 22.4935 222.32 22.1224 222.884 21.5029C223.448 20.8721 223.828 20.0253 224.023 18.9629C224.219 17.9005 224.202 16.6496 223.975 15.2109C223.747 13.7505 223.367 12.5388 222.836 11.5762C222.304 10.6134 221.659 9.91597 220.899 9.48438Z" fill="currentColor"/>
<path d="M9.93457 2.07812C9.14291 2.17188 8.56478 2.31771 8.2002 2.51562C7.84606 2.70313 7.66374 3.00523 7.65332 3.42188C7.64293 3.82812 7.76793 4.41153 8.02832 5.17188L13.2988 20.2227L18.3877 5.375C18.6689 4.55216 18.8095 3.92187 18.8096 3.48438C18.82 3.0469 18.6429 2.72917 18.2783 2.53125C17.9242 2.33333 17.3408 2.18229 16.5283 2.07812V1.04688H23.4658V2.07812C22.82 2.15104 22.3148 2.28125 21.9502 2.46875C21.5856 2.65625 21.2679 2.97919 20.9971 3.4375C20.7367 3.88542 20.445 4.55735 20.1221 5.45312L13.4346 23.6094H10.8408L4.12207 5.15625C3.83042 4.35422 3.55435 3.75 3.29395 3.34375C3.04396 2.9271 2.73663 2.63021 2.37207 2.45312C2.01791 2.27604 1.53352 2.15104 0.918945 2.07812V1.04688H9.93457V2.07812Z" fill="black"/>
<path d="M29.9629 21.125C29.9629 21.6248 30.0828 21.9687 30.3223 22.1562C30.5722 22.3333 31.1662 22.474 32.1035 22.5781V23.6094H24.4316V22.5781C25.3792 22.474 25.9731 22.3332 26.2129 22.1562C26.4525 21.9688 26.5722 21.6249 26.5723 21.125V3.54688C26.5723 3.11979 26.5098 2.82812 26.3848 2.67188C26.2702 2.50524 25.9941 2.35936 25.5566 2.23438L24.4316 1.95312V1.04688L29.9629 0.390625V21.125Z" fill="currentColor"/>
<path d="M73.4951 21.125C73.4951 21.6249 73.6149 21.9688 73.8545 22.1562C74.1047 22.3332 74.6987 22.474 75.6357 22.5781V23.6094H67.9639V22.5781C68.9116 22.474 69.5056 22.3333 69.7451 22.1562C69.9846 21.9687 70.1045 21.6248 70.1045 21.125V11.0625C70.1045 10.6357 70.0418 10.3438 69.917 10.1875C69.8024 10.0209 69.5261 9.88019 69.0889 9.76562L67.9639 9.46875V8.5625L73.4951 7.90625V21.125Z" fill="currentColor"/>
<path d="M97.9326 7.75C99.5158 7.75007 100.802 8.18757 101.792 9.0625C102.781 9.92707 103.276 11.1773 103.276 12.8125V21.125C103.276 21.6249 103.396 21.9688 103.636 22.1562C103.886 22.3332 104.48 22.474 105.417 22.5781V23.6094H97.9014V22.5781C98.7761 22.474 99.3233 22.3385 99.542 22.1719C99.7606 21.9948 99.8701 21.6717 99.8701 21.2031V13.5312C99.8701 12.2606 99.5626 11.3021 98.9482 10.6562C98.3441 10.0001 97.4897 9.67196 96.3857 9.67188C95.5317 9.67188 94.7867 9.84384 94.1514 10.1875C93.6809 10.4384 93.281 10.7925 92.9521 11.25C93.0426 11.6747 93.0889 12.1383 93.0889 12.6406V21.2031C93.0889 21.6718 93.1983 21.9948 93.417 22.1719C93.6464 22.3384 94.1987 22.474 95.0732 22.5781V23.6094H87.7139V22.5781C88.5886 22.474 89.1358 22.3385 89.3545 22.1719C89.5835 21.9948 89.6982 21.6717 89.6982 21.2031V13.5312C89.6982 12.2606 89.396 11.3021 88.792 10.6562C88.1983 10.0001 87.3699 9.67196 86.3076 9.67188C85.4744 9.67188 84.7555 9.84384 84.1514 10.1875C83.6527 10.4712 83.2368 10.8728 82.9014 11.3906V21.2031C82.9014 21.6718 83.0108 21.9948 83.2295 22.1719C83.4589 22.3488 84.0164 22.4844 84.9014 22.5781V23.6094H77.3701V22.5781C78.3178 22.474 78.9118 22.3333 79.1514 22.1562C79.3908 21.9687 79.5107 21.6248 79.5107 21.125V11.0625C79.5107 10.6357 79.4481 10.3438 79.3232 10.1875C79.2087 10.0209 78.9324 9.88019 78.4951 9.76562L77.3701 9.46875V8.5625L82.8389 7.90625V10.4062C83.3175 9.64056 83.9624 9.02014 84.7764 8.54688C85.6826 8.01571 86.7452 7.75 87.9639 7.75C89.4741 7.75007 90.7035 8.15632 91.6514 8.96875C92.1322 9.37648 92.4919 9.88802 92.7314 10.5029C93.2261 9.65327 93.9065 8.99009 94.7764 8.51562C95.7034 8.00529 96.7556 7.75 97.9326 7.75Z" fill="currentColor"/>
<path d="M112.589 21.125C112.589 21.6249 112.709 21.9688 112.948 22.1562C113.198 22.3332 113.792 22.474 114.729 22.5781V23.6094H107.058V22.5781C108.005 22.474 108.599 22.3333 108.839 22.1562C109.078 21.9687 109.198 21.6248 109.198 21.125V11.0625C109.198 10.6357 109.136 10.3438 109.011 10.1875C108.896 10.0209 108.62 9.88019 108.183 9.76562L107.058 9.46875V8.5625L112.589 7.90625V21.125Z" fill="currentColor"/>
<path d="M126.604 7.8125C127.24 7.81258 127.688 7.99487 127.948 8.35938C128.219 8.71348 128.354 9.13556 128.354 9.625C128.354 9.86452 128.323 10.0938 128.261 10.3125C128.209 10.5312 128.136 10.7031 128.042 10.8281C127.875 10.7761 127.641 10.7344 127.339 10.7031C127.037 10.6719 126.719 10.6563 126.386 10.6562C125.532 10.6562 124.688 10.7917 123.854 11.0625C123.021 11.3333 122.401 11.6875 121.995 12.125V20.9531C121.995 21.3489 122.042 21.6511 122.136 21.8594C122.24 22.0676 122.464 22.224 122.808 22.3281C123.151 22.4218 123.672 22.5052 124.37 22.5781V23.6094H116.464V22.5781C117.422 22.474 118.016 22.3333 118.245 22.1562C118.485 21.9687 118.604 21.63 118.604 21.1406V11.0625C118.604 10.6357 118.542 10.3438 118.417 10.1875C118.302 10.0209 118.026 9.88019 117.589 9.76562L116.464 9.46875V8.5625L121.933 7.90625V11.3125C122.86 10.1355 123.693 9.2604 124.433 8.6875C125.172 8.10425 125.896 7.8125 126.604 7.8125Z" fill="currentColor"/>
<path d="M154.823 2L141.917 22.4219L147.167 22.2344C148.333 22.1927 149.308 22.1094 150.089 21.9844C150.88 21.8594 151.532 21.6354 152.042 21.3125C152.552 20.9792 152.969 20.4947 153.292 19.8594C153.615 19.224 153.881 18.3749 154.089 17.3125H155.042L154.808 23.6094H137.698V22.6562L150.589 2.23438L145.058 2.40625C143.954 2.44791 143.042 2.5365 142.323 2.67188C141.615 2.79686 141.042 3.0157 140.604 3.32812C140.177 3.63021 139.844 4.05208 139.604 4.59375C139.365 5.13542 139.157 5.82813 138.979 6.67188H138.026L138.245 1.04688H154.823V2Z" fill="black"/>
<path d="M162.558 10.3438C163.016 9.59377 163.683 8.97395 164.558 8.48438C165.443 7.99488 166.485 7.75 167.683 7.75C169.266 7.75007 170.558 8.17716 171.558 9.03125C172.557 9.88541 173.058 11.1148 173.058 12.7188V21.125C173.058 21.6249 173.172 21.9636 173.401 22.1406C173.641 22.3176 174.24 22.4636 175.198 22.5781V23.6094H167.667V22.5781C168.552 22.474 169.105 22.3385 169.323 22.1719C169.542 21.9948 169.651 21.6717 169.651 21.2031V13.4688C169.651 12.2189 169.333 11.276 168.698 10.6406C168.063 9.99487 167.193 9.67196 166.089 9.67188C165.235 9.67188 164.505 9.83863 163.901 10.1719C163.308 10.5052 162.86 10.9167 162.558 11.4062V21.2031C162.558 21.6718 162.667 21.9948 162.886 22.1719C163.115 22.3384 163.673 22.474 164.558 22.5781V23.6094H157.026V22.5781C157.974 22.474 158.568 22.3333 158.808 22.1562C159.047 21.9687 159.167 21.6248 159.167 21.125V3.54688C159.167 3.12008 159.104 2.8282 158.979 2.67188C158.865 2.50526 158.589 2.35935 158.151 2.23438L157.026 1.95312V1.04688L162.558 0.375V10.3438Z" fill="black"/>
<path d="M200.032 14.5371L202.116 14.5234L205.11 11.3125C205.819 10.573 206.11 10.0521 205.985 9.75C205.871 9.44792 205.324 9.23438 204.345 9.10938V8.07812H210.938V9.10938C210.397 9.20312 209.918 9.33855 209.501 9.51562C209.084 9.6823 208.61 9.96877 208.079 10.375C207.548 10.7708 206.845 11.375 205.97 12.1875L204.515 13.5332L208.298 19.7188C208.714 20.4062 209.09 20.9532 209.423 21.3594C209.756 21.7552 210.079 22.0521 210.392 22.25C210.714 22.4375 211.058 22.5729 211.423 22.6562V23.6094H206.892L202.134 15.7607L200.032 15.7539V21.2031C200.032 21.6718 200.142 21.9948 200.36 22.1719C200.59 22.3385 201.147 22.474 202.032 22.5781V23.6094H194.501V22.5781C195.449 22.474 196.043 22.3333 196.282 22.1562C196.522 21.9688 196.642 21.6249 196.642 21.125V3.54688C196.642 3.11989 196.579 2.82815 196.454 2.67188C196.34 2.50521 196.063 2.35937 195.626 2.23438L194.501 1.95312V1.04688L200.032 0.375V14.5371Z" fill="currentColor"/>
<path d="M235.813 9.10938C235.136 9.18229 234.636 9.29167 234.313 9.4375C233.991 9.57292 233.819 9.80731 233.798 10.1406C233.777 10.4635 233.881 10.9428 234.11 11.5781L237.228 20.0342L240.345 11.6094C240.574 10.9741 240.678 10.4896 240.657 10.1562C240.636 9.82294 240.464 9.58334 240.142 9.4375C239.819 9.29167 239.319 9.18229 238.642 9.10938V8.07812H244.485V9.10938C243.996 9.18229 243.605 9.29167 243.313 9.4375C243.032 9.58334 242.782 9.83857 242.563 10.2031C242.345 10.5573 242.089 11.1043 241.798 11.8438L237.079 23.6094H235.267L230.501 11.625C230.251 11.0001 230.017 10.526 229.798 10.2031C229.59 9.86982 229.339 9.63021 229.048 9.48438C228.756 9.33855 228.366 9.21354 227.876 9.10938V8.07812H235.813V9.10938Z" fill="currentColor"/>
<path d="M71.4795 0.921875C72.0626 0.921964 72.5525 1.11467 72.9482 1.5C73.3439 1.87495 73.542 2.34389 73.542 2.90625C73.542 3.47903 73.344 3.95839 72.9482 4.34375C72.5525 4.72908 72.0626 4.92179 71.4795 4.92188C70.8963 4.92188 70.4065 4.72897 70.0107 4.34375C69.615 3.95837 69.417 3.47909 69.417 2.90625C69.417 2.34375 69.6149 1.875 70.0107 1.5C70.417 1.11466 70.9066 0.921875 71.4795 0.921875Z" fill="black"/>
<path d="M110.573 0.921875C111.156 0.921964 111.646 1.11467 112.042 1.5C112.438 1.87495 112.636 2.34389 112.636 2.90625C112.636 3.47903 112.438 3.95839 112.042 4.34375C111.646 4.72908 111.156 4.92179 110.573 4.92188C109.99 4.92188 109.5 4.72897 109.104 4.34375C108.709 3.95837 108.511 3.47909 108.511 2.90625C108.511 2.34375 108.709 1.875 109.104 1.5C109.511 1.11466 110 0.921875 110.573 0.921875Z" fill="currentColor"/>
</g>
</svg>
