<svg width="36" height="26" viewBox="0 0 36 26" fill="none" xmlns="http://www.w3.org/2000/svg">
<path d="M32.8957 1.05989C37.2716 1.93341 34.4989 3.83424 32.5502 4.6825C14.0583 3.8857 20.0015 5.01543 1.03037 4.16766C1.01599 4.16026 1.00153 4.15287 0.987012 4.14542C-0.684797 3.2876 0.784934 1.48089 1.73154 0.682495C21.2638 1.13198 11.7422 0.35639 32.8957 1.05989Z" fill="white"/>
<path d="M2.55747 25.3051C-1.81849 24.4316 0.954176 22.5307 2.90291 21.6825C21.3948 22.4793 15.4517 21.3496 34.4228 22.1973C34.4371 22.2047 34.4516 22.2121 34.4661 22.2196C36.1379 23.0774 34.6682 24.8841 33.7216 25.6825C14.1894 25.233 23.711 26.0086 2.55747 25.3051Z" fill="white"/>
<path d="M3.02282 14.8115C3.02282 14.8115 1.65678 14.6522 1.06333 14.2816C0.469886 13.911 3.40407 11.2198 3.40407 11.2198C3.40407 11.2198 33.8276 11.1601 33.9217 11.2188C34.0157 11.2775 34.0115 11.6186 34.0115 11.6186C34.0115 11.6186 34.1245 13.889 33.1978 14.6696C14.2957 13.977 3.02282 14.8115 3.02282 14.8115Z" fill="white"/>
</svg>
